<?xml version="1.0" encoding="UTF-8"?>
<svg version="1.1" xmlns="http://www.w3.org/2000/svg" width="340" height="217">
<path d="M0 0 C112.2 0 224.4 0 340 0 C340 71.61 340 143.22 340 217 C227.8 217 115.6 217 0 217 C0 145.39 0 73.78 0 0 Z " fill="#FEFDFD" transform="translate(0,0)"/>
<path d="M0 0 C0 47.52 0 95.04 0 144 C-5.90642799 143.34373022 -11.63575023 142.60745268 -17.453125 141.51171875 C-18.22769043 141.36847168 -19.00225586 141.22522461 -19.80029297 141.07763672 C-22.28412806 140.61741863 -24.7670733 140.15259161 -27.25 139.6875 C-28.96447638 139.36867134 -30.67899483 139.05006886 -32.39355469 138.73168945 C-37.26331594 137.82615031 -42.13190795 136.91446625 -47 136 C-48.81177734 135.6596875 -48.81177734 135.6596875 -50.66015625 135.3125 C-59.7846298 133.59388788 -68.89504538 131.82099092 -78 130 C-78 91.72 -78 53.44 -78 14 C-68.76 12.35 -59.52 10.7 -50 9 C-40.7683399 7.08134747 -40.7683399 7.08134747 -31.54296875 5.1328125 C-25.53690247 3.87775103 -19.5028934 2.84457445 -13.44091797 1.89990234 C-1.31210285 0 -1.31210285 0 0 0 Z " fill="#414142" transform="translate(170,4)"/>
<path d="M0 0 C8.08109189 1.34684865 16.13716568 2.74182679 24.1875 4.25 C35.0580855 6.27466297 45.93339948 8.27168024 56.8125 10.25 C57.5294101 10.38055786 58.24632019 10.51111572 58.98495483 10.64562988 C61.03805619 11.01946295 63.09127251 11.39265746 65.14453125 11.765625 C66.32378174 11.97993164 67.50303223 12.19423828 68.71801758 12.41503906 C71.80809663 12.96579629 74.90392928 13.48398821 78 14 C78 52.28 78 90.56 78 130 C66.78 131.98 55.56 133.96 44 136 C36.7369575 137.50274671 36.7369575 137.50274671 29.484375 139.0546875 C24.0107529 140.23189116 18.5071782 141.24358948 13 142.25 C11.57252441 142.51321045 11.57252441 142.51321045 10.11621094 142.78173828 C9.23223633 142.9414209 8.34826172 143.10110352 7.4375 143.265625 C6.25994141 143.47880371 6.25994141 143.47880371 5.05859375 143.69628906 C3 144 3 144 0 144 C0 96.48 0 48.96 0 0 Z " fill="#FE6734" transform="translate(173,4)"/>
<path d="M0 0 C0.89912109 -0.03738281 1.79824219 -0.07476562 2.72460938 -0.11328125 C7.20333046 -0.17242797 10.33034412 -0.12519333 13.89453125 2.7734375 C17.70363642 6.8717639 17.5038531 9.44324584 17.49609375 14.84375 C17.3125 17.375 17.3125 17.375 16.0625 20.625 C15.815 21.5325 15.5675 22.44 15.3125 23.375 C15.93125 24.24125 16.55 25.1075 17.1875 26 C20.32807769 30.98797633 20.09314516 35.62661293 19.3125 41.375 C17.14385394 45.95325279 14.89240123 48.29105537 10.3125 50.375 C6.88740299 50.75975515 3.50448241 50.70322687 0.0625 50.625 C-1.32195313 50.61726563 -1.32195313 50.61726563 -2.734375 50.609375 C-9.53311012 50.52938988 -9.53311012 50.52938988 -10.6875 49.375 C-10.78581146 47.87629952 -10.81548456 46.37301461 -10.81689453 44.87109375 C-10.82004669 43.91340088 -10.82319885 42.95570801 -10.82644653 41.96899414 C-10.8244223 40.92735107 -10.82239807 39.88570801 -10.8203125 38.8125 C-10.82126923 37.75087646 -10.82222595 36.68925293 -10.82321167 35.59545898 C-10.82389364 33.34586528 -10.82203819 31.09626963 -10.81787109 28.84667969 C-10.8125231 25.38992929 -10.81781554 21.93330883 -10.82421875 18.4765625 C-10.82355797 16.29687471 -10.82227682 14.117187 -10.8203125 11.9375 C-10.82233673 10.89585693 -10.82436096 9.85421387 -10.82644653 8.78100586 C-10.82329437 7.82331299 -10.82014221 6.86562012 -10.81689453 5.87890625 C-10.81609894 5.03142822 -10.81530334 4.1839502 -10.81448364 3.31079102 C-10.49277071 -1.59353366 -3.7480851 0.05786517 0 0 Z " fill="#EB6234" transform="translate(45.6875,161.625)"/>
<path d="M0 0 C1.42022461 -0.04350586 1.42022461 -0.04350586 2.86914062 -0.08789062 C8.6828033 -0.14063146 12.32866315 0.21916838 16.8125 4.3125 C20.89784019 9.56138645 20.43499764 14.94054494 19.8125 21.3125 C18.08297914 26.69323158 15.46471959 28.33709668 10.8125 31.3125 C11.40160156 32.34890625 11.99070312 33.3853125 12.59765625 34.453125 C13.35741194 35.82256118 14.11649143 37.19237267 14.875 38.5625 C15.26494141 39.24441406 15.65488281 39.92632812 16.05664062 40.62890625 C16.60288086 41.62470703 16.60288086 41.62470703 17.16015625 42.640625 C17.50054932 43.2480957 17.84094238 43.85556641 18.19165039 44.48144531 C18.96878879 46.77343824 18.58099965 48.05707325 17.8125 50.3125 C15.61328125 50.33984375 15.61328125 50.33984375 12.8125 49.3125 C10.81754844 46.70192795 9.43780646 43.81999126 8 40.875 C7.38995117 39.69067383 7.38995117 39.69067383 6.76757812 38.48242188 C3.8125 32.65669643 3.8125 32.65669643 3.8125 30.3125 C0.8425 30.3125 -2.1275 30.3125 -5.1875 30.3125 C-5.1875 36.5825 -5.1875 42.8525 -5.1875 49.3125 C-7.6625 49.8075 -7.6625 49.8075 -10.1875 50.3125 C-11.78801664 48.71198336 -11.31481472 47.02403878 -11.31689453 44.80859375 C-11.32004669 43.85090088 -11.32319885 42.89320801 -11.32644653 41.90649414 C-11.3244223 40.86485107 -11.32239807 39.82320801 -11.3203125 38.75 C-11.32126923 37.68837646 -11.32222595 36.62675293 -11.32321167 35.53295898 C-11.32389364 33.28336528 -11.32203819 31.03376963 -11.31787109 28.78417969 C-11.3125231 25.32742929 -11.31781554 21.87080883 -11.32421875 18.4140625 C-11.32355797 16.23437471 -11.32227682 14.054687 -11.3203125 11.875 C-11.32233673 10.83335693 -11.32436096 9.79171387 -11.32644653 8.71850586 C-11.32329437 7.76081299 -11.32014221 6.80312012 -11.31689453 5.81640625 C-11.31609894 4.96892822 -11.31530334 4.1214502 -11.31448364 3.24829102 C-10.98703484 -1.74347358 -3.78781382 0.03790341 0 0 Z " fill="#EC6538" transform="translate(115.1875,161.6875)"/>
<path d="M0 0 C1.99954746 -0.04254356 4.00041636 -0.04080783 6 0 C8.67452578 2.67452578 8.14335458 8.98323319 8.31225586 12.63427734 C8.08759869 19.87067046 5.59344029 23.61948254 0.60864258 28.74438477 C-2.59496333 31.73972096 -5.84753954 34.65074529 -9.23413086 37.43798828 C-11.10341915 38.89547056 -11.10341915 38.89547056 -12 41 C-5.73 41 0.54 41 7 41 C7 47.6 7 54.2 7 61 C10.09375 60.7525 10.09375 60.7525 13.25 60.5 C19.84784111 60.02296668 26.38792533 59.89100976 33 60 C29.65110955 64.0000636 26.2041068 67.87705861 22.63891602 71.68408203 C20.54287184 73.93237102 18.47616938 76.20686123 16.40820312 78.48095703 C15.2060717 79.77770837 13.95878907 81.0323571 12.703125 82.27734375 C7.20689909 88.19373569 7.12684334 93.9832925 7.0703125 101.71875 C7 105 7 105 6 106 C4.00041636 106.04080783 1.99954746 106.04254356 0 106 C-1.93952194 90.16057085 -1.93952194 90.16057085 2.4609375 83.93359375 C4.91152122 80.96255273 7.59111455 78.25276581 10.37988281 75.60009766 C13.11517996 72.89860014 15.5324051 69.94555247 18 67 C12.06 67 6.12 67 0 67 C0 60.4 0 53.8 0 47 C-1.505625 47.020625 -3.01125 47.04125 -4.5625 47.0625 C-11.73606459 47.07186497 -18.85008375 46.54034455 -26 46 C-22.48379357 41.05830448 -18.72033212 36.47134082 -14.625 32 C-14.15231689 31.47583496 -13.67963379 30.95166992 -13.19262695 30.41162109 C-11.08811993 28.11088544 -9.00773683 26.00603669 -6.546875 24.0859375 C-3.49721901 21.68351066 -1.37711023 19.84088206 -0.57128906 15.90722656 C0.05219417 10.60654039 0.09112393 5.33075009 0 0 Z " fill="#FEF9F8" transform="translate(210,22)"/>
<path d="M0 0 C1.42022461 -0.04350586 1.42022461 -0.04350586 2.86914062 -0.08789062 C8.6828033 -0.14063146 12.32866315 0.21916838 16.8125 4.3125 C20.89484731 9.55754117 20.44243726 14.94409313 19.8125 21.3125 C18.60394265 24.93817205 17.71079795 26.59794481 14.75 28.953125 C10.74337269 30.80725572 7.3473025 30.64101383 3 30.5 C0.298125 30.438125 -2.40375 30.37625 -5.1875 30.3125 C-5.1875 36.9125 -5.1875 43.5125 -5.1875 50.3125 C-6.8375 50.3125 -8.4875 50.3125 -10.1875 50.3125 C-11.78801664 48.71198336 -11.31481472 47.02403878 -11.31689453 44.80859375 C-11.32004669 43.85090088 -11.32319885 42.89320801 -11.32644653 41.90649414 C-11.3244223 40.86485107 -11.32239807 39.82320801 -11.3203125 38.75 C-11.32126923 37.68837646 -11.32222595 36.62675293 -11.32321167 35.53295898 C-11.32389364 33.28336528 -11.32203819 31.03376963 -11.31787109 28.78417969 C-11.3125231 25.32742929 -11.31781554 21.87080883 -11.32421875 18.4140625 C-11.32355797 16.23437471 -11.32227682 14.054687 -11.3203125 11.875 C-11.32233673 10.83335693 -11.32436096 9.79171387 -11.32644653 8.71850586 C-11.32329437 7.76081299 -11.32014221 6.80312012 -11.31689453 5.81640625 C-11.31609894 4.96892822 -11.31530334 4.1214502 -11.31448364 3.24829102 C-10.98703484 -1.74347358 -3.78781382 0.03790341 0 0 Z " fill="#EC6336" transform="translate(151.1875,161.6875)"/>
<path d="M0 0 C1.67542976 0.28604898 3.34385343 0.61781233 5 1 C5.01458252 2.09465576 5.02916504 3.18931152 5.04418945 4.31713867 C5.10228739 8.38956905 5.17951927 12.46145315 5.26245117 16.53344727 C5.29564654 18.29377355 5.32369524 20.05420488 5.34643555 21.81469727 C5.3800812 24.34957525 5.4324006 26.88349523 5.48828125 29.41796875 C5.49467117 30.20149216 5.5010611 30.98501556 5.50764465 31.7922821 C5.62926824 36.34154881 6.1597268 39.38752072 9 43 C12.09173752 44.54586876 14.59429552 44.29359521 18 44 C20.36497439 42.13291495 21.66030715 40.67938569 23 38 C23.15691907 35.23068632 23.25843134 32.48265893 23.31640625 29.7109375 C23.33718735 28.89251373 23.35796844 28.07408997 23.37937927 27.23086548 C23.44484812 24.61233034 23.50374726 21.99369361 23.5625 19.375 C23.60568776 17.60155193 23.64930214 15.82811419 23.69335938 14.0546875 C23.80052676 9.70322954 23.90180169 5.35166923 24 1 C25.65 0.67 27.3 0.34 29 0 C31.41098434 4.82196868 30.31259189 12.15924701 30.35009766 17.51953125 C30.36659786 19.24590593 30.39380911 20.97221398 30.43212891 22.69824219 C30.48729759 25.19762321 30.50883569 27.69540204 30.5234375 30.1953125 C30.54610687 30.95707794 30.56877625 31.71884338 30.59213257 32.50369263 C30.56557427 39.34081138 27.76726141 43.9362463 23.25 48.9375 C18.90523251 50.98919576 14.44920093 51.68870325 9.77734375 50.375 C5.00716081 48.23510485 2.49425358 45.68919673 0 41 C-1.2692253 37.19232409 -1.14296696 33.61499256 -1.1328125 29.6484375 C-1.13376923 28.83380035 -1.13472595 28.01916321 -1.13571167 27.17984009 C-1.13639166 25.46006188 -1.13454998 23.74028108 -1.13037109 22.02050781 C-1.12500649 19.37819717 -1.13032925 16.73605545 -1.13671875 14.09375 C-1.13605821 12.42447879 -1.13477754 10.75520768 -1.1328125 9.0859375 C-1.13483673 8.29118011 -1.13686096 7.49642273 -1.13894653 6.67758179 C-1.11496014 1.11496014 -1.11496014 1.11496014 0 0 Z " fill="#4D4D4E" transform="translate(207,162)"/>
<path d="M0 0 C2.0625 0.4375 2.0625 0.4375 4 1 C4.00410889 2.08941895 4.00821777 3.17883789 4.01245117 4.30126953 C4.03429807 8.36082638 4.0886443 12.41942162 4.15258789 16.47851562 C4.17571968 18.23200228 4.19015229 19.98562692 4.19555664 21.73925781 C4.20488199 24.26714584 4.24594635 26.79287817 4.29296875 29.3203125 C4.2890361 30.09867462 4.28510345 30.87703674 4.28105164 31.6789856 C4.43336367 37.4193651 5.86480639 39.99554345 10 44 C13.10320065 45.12686057 14.60286096 44.59315126 18 44 C21.19991484 41.09140382 21.94922131 39.38836298 22.51416016 35.06762695 C22.54174116 33.54140501 22.54897129 32.01472023 22.5390625 30.48828125 C22.55085541 29.67884567 22.56264832 28.8694101 22.57479858 28.03544617 C22.60998909 25.46093316 22.61922436 22.88723371 22.625 20.3125 C22.64133012 17.72729806 22.66330888 15.14245903 22.69662476 12.55741882 C22.7162945 10.95156736 22.72558533 9.34554887 22.72354126 7.73957825 C22.77652579 2.22347421 22.77652579 2.22347421 25 0 C27.125 0.375 27.125 0.375 29 1 C29.17391434 6.5499697 29.30047214 12.0983314 29.38452148 17.65039062 C29.41957944 19.53608856 29.4672419 21.42159819 29.52807617 23.30664062 C30.08471808 41.00691775 30.08471808 41.00691775 25.59765625 46.21875 C20.96627418 50.28012504 17.11528856 50.45432346 11.05859375 50.41796875 C6.42529736 49.78481075 3.7990273 47.65382007 1 44 C-1.73722098 40.02160493 -1.27064495 35.75009862 -1.23046875 31.11328125 C-1.23001053 30.25566696 -1.22955231 29.39805267 -1.2290802 28.51445007 C-1.22606463 26.70647798 -1.21819915 24.89850833 -1.20581055 23.09057617 C-1.18749832 20.31224453 -1.18530133 17.5342452 -1.18554688 14.75585938 C-1.18063359 12.9999971 -1.17480611 11.24413709 -1.16796875 9.48828125 C-1.16685593 8.65291336 -1.1657431 7.81754547 -1.16459656 6.9568634 C-1.11606528 1.11606528 -1.11606528 1.11606528 0 0 Z " fill="#EB6234" transform="translate(70,162)"/>
<path d="M0 0 C1.77697266 0.00193359 1.77697266 0.00193359 3.58984375 0.00390625 C7.32500606 0.47027635 9.81971734 1.57104342 13.0625 3.4375 C12.7325 5.0875 12.4025 6.7375 12.0625 8.4375 C6.3125 7.5625 6.3125 7.5625 4.0625 6.4375 C-1.4770843 5.95304304 -1.4770843 5.95304304 -6.4375 7.9375 C-6.9325 8.4325 -7.4275 8.9275 -7.9375 9.4375 C-7.92069952 12.82279641 -7.90308262 15.45496632 -5.43554688 17.96582031 C-3.40287856 19.43293951 -1.33171668 20.7638899 0.8125 22.0625 C12.57824803 29.46899606 12.57824803 29.46899606 15.0625 34.4375 C15.46387875 38.61183895 15.32444303 40.93301713 13.375 44.6875 C10.22113758 48.4380391 6.94990038 50.71876465 2.0625 51.4375 C-3.46381719 51.87093664 -9.06284468 51.24094984 -13.9375 48.4375 C-14.7578125 46.390625 -14.7578125 46.390625 -14.9375 44.4375 C-14.4425 43.9425 -14.4425 43.9425 -13.9375 43.4375 C-12.32737455 43.67730592 -10.71755485 43.91935089 -9.109375 44.171875 C-0.65596922 45.25765738 -0.65596922 45.25765738 7.0625 42.4375 C7.88120185 38.87543339 7.88120185 38.87543339 8.0625 35.4375 C3.39398712 31.72749822 -1.30854591 28.15330477 -6.25 24.8125 C-12.88525601 20.16885272 -12.88525601 20.16885272 -14.9375 16.4375 C-15.41346233 12.62980134 -15.30278894 10.26420654 -13.75 6.75 C-9.68914206 1.56890538 -6.62089443 -0.10783216 0 0 Z " fill="#484849" transform="translate(187.9375,161.5625)"/>
<path d="M0 0 C0.9583374 0.00523682 1.9166748 0.01047363 2.90405273 0.01586914 C4.45576172 0.02070313 4.45576172 0.02070313 6.03881836 0.02563477 C7.12743164 0.03401367 8.21604492 0.04239258 9.33764648 0.05102539 C10.97636719 0.05779297 10.97636719 0.05779297 12.64819336 0.06469727 C15.35723144 0.07652713 18.06616248 0.09300996 20.77514648 0.11352539 C21.90014648 3.86352539 21.90014648 3.86352539 20.77514648 6.11352539 C14.83514648 6.11352539 8.89514648 6.11352539 2.77514648 6.11352539 C2.77514648 10.73352539 2.77514648 15.35352539 2.77514648 20.11352539 C7.06514648 20.11352539 11.35514648 20.11352539 15.77514648 20.11352539 C16.10514648 21.76352539 16.43514648 23.41352539 16.77514648 25.11352539 C15.77514648 26.11352539 15.77514648 26.11352539 12.61499023 26.21118164 C9.00170898 26.17862956 5.38842773 26.14607747 1.77514648 26.11352539 C1.77514648 32.38352539 1.77514648 38.65352539 1.77514648 45.11352539 C8.04514648 45.11352539 14.31514648 45.11352539 20.77514648 45.11352539 C21.10514648 46.43352539 21.43514648 47.75352539 21.77514648 49.11352539 C20.77514648 50.11352539 20.77514648 50.11352539 18.45849609 50.22705078 C17.45826416 50.22181396 16.45803223 50.21657715 15.42749023 50.21118164 C14.34790039 50.20795898 13.26831055 50.20473633 12.15600586 50.20141602 C11.01969727 50.19303711 9.88338867 50.1846582 8.71264648 50.17602539 C7.5724707 50.17151367 6.43229492 50.16700195 5.25756836 50.16235352 C2.43004297 50.15052287 -0.39737992 50.13403949 -3.22485352 50.11352539 C-3.25012189 43.15349092 -3.26768574 36.19346819 -3.27978516 29.23339844 C-3.28482693 26.86360227 -3.29166017 24.49380924 -3.30029297 22.12402344 C-3.31236541 18.725985 -3.31808322 15.32798754 -3.32250977 11.92993164 C-3.32767105 10.86327774 -3.33283234 9.79662384 -3.33815002 8.69764709 C-3.33822556 7.71670578 -3.33830109 6.73576447 -3.33837891 5.72509766 C-3.34059952 4.85683853 -3.34282013 3.98857941 -3.34510803 3.0940094 C-3.17253331 0.25185849 -2.84535365 0.14518703 0 0 Z " fill="#404041" transform="translate(285.224853515625,161.886474609375)"/>
<path d="M0 0 C9.57 0 19.14 0 29 0 C29 1.65 29 3.3 29 5 C25.04 5 21.08 5 17 5 C17 19.85 17 34.7 17 50 C15.35 50 13.7 50 12 50 C12 35.15 12 20.3 12 5 C8.04 5 4.08 5 0 5 C0 3.35 0 1.7 0 0 Z " fill="#404041" transform="translate(250,162)"/>
<path d="M0 0 C13.21764706 -0.49411765 13.21764706 -0.49411765 16.89453125 1.828125 C19.64618205 4.66656256 19.95979782 6.45727052 20.25 10.375 C19.98489341 14.21904558 19.31409877 15.97387084 17 19 C13.93618406 20.53190797 10.73034134 20.10243613 7.375 20.0625 C4.94125 20.041875 2.5075 20.02125 0 20 C0 13.4 0 6.8 0 0 Z " fill="#FEF6F3" transform="translate(146,167)"/>
<path d="M0 0 C12.62832522 -0.70813039 12.62832522 -0.70813039 16.04296875 1.0546875 C18.54364435 3.76803053 19.28401997 6.56159403 19.4375 10.125 C18.8313253 15.4939759 18.8313253 15.4939759 17 18 C13.2632157 20.49118953 11.25548181 20.2065226 6.8125 20.125 C4.564375 20.08375 2.31625 20.0425 0 20 C0 13.4 0 6.8 0 0 Z " fill="#FEF7F6" transform="translate(41,187)"/>
<path d="M0 0 C2.578125 -0.0825 5.15625 -0.165 7.8125 -0.25 C8.62050049 -0.28641602 9.42850098 -0.32283203 10.26098633 -0.36035156 C15.48445092 -0.44160982 15.48445092 -0.44160982 17.98828125 1.703125 C19.1385946 4.31464719 19.40105756 6.1510396 19.375 9 C19.38273437 9.845625 19.39046875 10.69125 19.3984375 11.5625 C18.89018785 14.67179198 18.41339965 15.93272643 16 18 C13.09976037 18.29868585 10.68744737 18.37957186 7.8125 18.25 C3.9453125 18.12625 3.9453125 18.12625 0 18 C0 12.06 0 6.12 0 0 Z " fill="#FEFEFE" transform="translate(110,168)"/>
<path d="M0 0 C1.65 0 3.3 0 5 0 C5 16.5 5 33 5 50 C3.35 50 1.7 50 0 50 C0 33.5 0 17 0 0 Z " fill="#3E3E3F" transform="translate(242,162)"/>
<path d="M0 0 C2.45898655 -0.08076963 4.91533742 -0.14037143 7.375 -0.1875 C8.07367188 -0.21263672 8.77234375 -0.23777344 9.4921875 -0.26367188 C11.5234375 -0.29296875 11.5234375 -0.29296875 15 0 C17.17944188 3.26916282 17.23305854 3.86280386 16.8125 7.5625 C16.73644531 8.34753906 16.66039063 9.13257813 16.58203125 9.94140625 C16 12 16 12 13 14 C8.65339644 14.27064779 4.35919984 14.08632079 0 14 C0 9.38 0 4.76 0 0 Z " fill="#FEF8F6" transform="translate(41,168)"/>
<path d="M0 0 C6.27 0 12.54 0 19 0 C19 0.33 19 0.66 19 1 C13.06 1 7.12 1 1 1 C1 5.62 1 10.24 1 15 C5.29 15 9.58 15 14 15 C14.33 16.65 14.66 18.3 15 20 C14 21 14 21 11.05859375 21.09765625 C9.86363281 21.08605469 8.66867187 21.07445312 7.4375 21.0625 C5.64119141 21.04896484 5.64119141 21.04896484 3.80859375 21.03515625 C2.88175781 21.02355469 1.95492188 21.01195312 1 21 C1 20.67 1 20.34 1 20 C4.96 19.67 8.92 19.34 13 19 C12.67 18.34 12.34 17.68 12 17 C8.01434954 16.39386091 4.02725031 16.25435265 0 16 C0 10.72 0 5.44 0 0 Z " fill="#858586" transform="translate(287,167)"/>
<path d="M0 0 C2.0625 0.4375 2.0625 0.4375 4 1 C3.01 1.66 2.02 2.32 1 3 C0.66207464 5.61677492 0.51113911 8.00936392 0.48828125 10.6328125 C0.47033005 11.38464813 0.45237885 12.13648376 0.43388367 12.91110229 C0.37964219 15.31567756 0.34584208 17.72005285 0.3125 20.125 C0.27933898 21.75393417 0.24485045 23.3828419 0.20898438 25.01171875 C0.12390838 29.00766846 0.05716422 33.00355746 0 37 C-0.33 37 -0.66 37 -1 37 C-1.0246501 31.89136104 -1.04283607 26.78275641 -1.05493164 21.67407227 C-1.05997204 19.93480832 -1.0668043 18.19554864 -1.07543945 16.45629883 C-1.08751792 13.96174063 -1.09323108 11.46723827 -1.09765625 8.97265625 C-1.10281754 8.19036148 -1.10797882 7.40806671 -1.11329651 6.60206604 C-1.11349226 4.73432886 -1.06199694 2.86670796 -1 1 C-0.67 0.67 -0.34 0.34 0 0 Z " fill="#515152" transform="translate(232,162)"/>
</svg>
