<?xml version="1.0" encoding="UTF-8"?>
<svg version="1.1" xmlns="http://www.w3.org/2000/svg" width="264" height="280">
<path d="M0 0 C87.12 0 174.24 0 264 0 C264 92.4 264 184.8 264 280 C176.88 280 89.76 280 0 280 C0 187.6 0 95.2 0 0 Z " fill="#F2F2F2" transform="translate(0,0)"/>
<path d="M0 0 C5.53108642 0.11711254 10.43233392 1.30169033 15.69921875 2.9140625 C16.60978027 3.18476563 17.5203418 3.45546875 18.45849609 3.734375 C48.7743476 12.94911403 48.7743476 12.94911403 57.51171875 22.2890625 C57.8796877 25.96192374 57.33422458 28.2200033 55.53515625 31.40625 C55.11419678 32.17098633 54.6932373 32.93572266 54.25952148 33.72363281 C53.80649658 34.52897461 53.35347168 35.33431641 52.88671875 36.1640625 C47.3349321 46.36904663 41.83277779 56.59249481 40.51171875 68.2890625 C42.82171875 69.2790625 45.13171875 70.2690625 47.51171875 71.2890625 C47.51171875 71.9490625 47.51171875 72.6090625 47.51171875 73.2890625 C48.21296875 73.4128125 48.91421875 73.5365625 49.63671875 73.6640625 C52.51171875 74.2890625 52.51171875 74.2890625 55.32421875 75.2890625 C58.56539277 76.45660185 58.56539277 76.45660185 62.34375 76.453125 C66.61378526 76.9565768 68.37597617 78.57808633 71.02734375 81.8515625 C71.4759375 82.4496875 71.92453125 83.0478125 72.38671875 83.6640625 C73.09441406 84.54964844 73.09441406 84.54964844 73.81640625 85.453125 C79.77064207 92.96358155 79.77064207 92.96358155 79.70703125 97.95703125 C79.69736328 99.29604492 79.69736328 99.29604492 79.6875 100.66210938 C79.66236328 102.05526367 79.66236328 102.05526367 79.63671875 103.4765625 C79.62769531 104.41693359 79.61867187 105.35730469 79.609375 106.32617188 C79.58580931 108.64739218 79.55290991 110.96809894 79.51171875 113.2890625 C80.56359375 113.3715625 81.61546875 113.4540625 82.69921875 113.5390625 C87.01737618 114.38853609 88.574203 115.04075157 91.51171875 118.2890625 C93.02844414 121.35652752 94.07344018 124.54097284 95.13671875 127.7890625 C95.82166718 129.7786746 96.51067376 131.76689293 97.203125 133.75390625 C97.57066895 134.81206543 97.93821289 135.87022461 98.31689453 136.96044922 C100.41892249 142.81640531 102.76173422 148.57627454 105.07421875 154.3515625 C118.72921079 188.71709601 118.72921079 188.71709601 118.57421875 199.1015625 C118.56519531 199.89175781 118.55617187 200.68195313 118.546875 201.49609375 C118.52947266 202.38361328 118.52947266 202.38361328 118.51171875 203.2890625 C119.50171875 203.6190625 120.49171875 203.9490625 121.51171875 204.2890625 C121.51171875 210.5590625 121.51171875 216.8290625 121.51171875 223.2890625 C120.19171875 223.6190625 118.87171875 223.9490625 117.51171875 224.2890625 C115.49694878 228.21256191 115.29803498 232.19002715 114.9609375 236.51953125 C114.83271606 238.14024536 114.83271606 238.14024536 114.7019043 239.79370117 C114.63914307 240.61717041 114.57638184 241.44063965 114.51171875 242.2890625 C104.51171875 242.2890625 94.51171875 242.2890625 84.51171875 242.2890625 C83.95484375 242.4540625 83.39796875 242.6190625 82.82421875 242.7890625 C75.93184319 244.27930586 72.20999285 242.94455909 66.51171875 239.2890625 C65.18525719 238.6088258 63.85562998 237.93413989 62.51171875 237.2890625 C61.78984375 237.9284375 61.06796875 238.5678125 60.32421875 239.2265625 C57.51171875 241.2890625 57.51171875 241.2890625 52.51171875 242.2890625 C52.51171875 246.5790625 52.51171875 250.8690625 52.51171875 255.2890625 C44.26171875 255.2890625 36.01171875 255.2890625 27.51171875 255.2890625 C27.51171875 250.6690625 27.51171875 246.0490625 27.51171875 241.2890625 C28.83171875 241.2890625 30.15171875 241.2890625 31.51171875 241.2890625 C31.51171875 239.6390625 31.51171875 237.9890625 31.51171875 236.2890625 C30.88523438 236.7221875 30.25875 237.1553125 29.61328125 237.6015625 C28.79601562 238.1584375 27.97875 238.7153125 27.13671875 239.2890625 C26.32460937 239.8459375 25.5125 240.4028125 24.67578125 240.9765625 C22.51171875 242.2890625 22.51171875 242.2890625 20.51171875 242.2890625 C20.72828125 243.60970703 20.72828125 243.60970703 20.94921875 244.95703125 C21.13484375 246.11847656 21.32046875 247.27992188 21.51171875 248.4765625 C21.69734375 249.62511719 21.88296875 250.77367187 22.07421875 251.95703125 C22.86309631 257.96517909 22.86309631 257.96517909 22.51171875 260.2890625 C15.28221797 266.85190849 5.79621966 268.90132841 -3.69140625 268.65234375 C-12.57379432 267.49862575 -18.72598852 262.10463323 -24.05566406 255.22314453 C-40.48828125 233.03855125 -40.48828125 233.03855125 -40.48828125 229.2890625 C-42.13828125 229.2890625 -43.78828125 229.2890625 -45.48828125 229.2890625 C-45.48828125 237.5390625 -45.48828125 245.7890625 -45.48828125 254.2890625 C-43.50828125 254.2890625 -41.52828125 254.2890625 -39.48828125 254.2890625 C-39.48828125 258.5790625 -39.48828125 262.8690625 -39.48828125 267.2890625 C-50.37828125 267.2890625 -61.26828125 267.2890625 -72.48828125 267.2890625 C-72.48828125 262.9990625 -72.48828125 258.7090625 -72.48828125 254.2890625 C-70.50828125 254.2890625 -68.52828125 254.2890625 -66.48828125 254.2890625 C-66.81828125 234.8190625 -67.14828125 215.3490625 -67.48828125 195.2890625 C-69.46828125 197.9290625 -71.44828125 200.5690625 -73.48828125 203.2890625 C-79.31421769 207.0813045 -83.75899649 207.88367702 -90.61328125 207.6640625 C-91.38542969 207.66277344 -92.15757813 207.66148437 -92.953125 207.66015625 C-97.81934344 207.58554643 -100.59723368 206.91941169 -105.48828125 205.2890625 C-105.15828125 200.9990625 -104.82828125 196.7090625 -104.48828125 192.2890625 C-99.20828125 192.2890625 -93.92828125 192.2890625 -88.48828125 192.2890625 C-87.64849783 188.0901454 -87.33723869 184.62902228 -87.28295898 180.38745117 C-87.26810959 179.37686142 -87.26810959 179.37686142 -87.25296021 178.34585571 C-87.22153202 176.1329492 -87.19666225 173.92002126 -87.171875 171.70703125 C-87.15128931 170.16717491 -87.13029242 168.62732401 -87.10890198 167.08747864 C-87.05384807 163.04501775 -87.00436561 159.00250728 -86.95605469 154.95996094 C-86.90571746 150.83068456 -86.85009534 146.70147971 -86.79492188 142.57226562 C-86.68754449 134.47792516 -86.58605465 126.38352464 -86.48828125 118.2890625 C-88.46828125 118.2890625 -90.44828125 118.2890625 -92.48828125 118.2890625 C-92.48828125 113.9990625 -92.48828125 109.7090625 -92.48828125 105.2890625 C-81.59828125 105.2890625 -70.70828125 105.2890625 -59.48828125 105.2890625 C-59.48828125 109.5790625 -59.48828125 113.8690625 -59.48828125 118.2890625 C-61.46828125 118.2890625 -63.44828125 118.2890625 -65.48828125 118.2890625 C-65.48828125 125.2190625 -65.48828125 132.1490625 -65.48828125 139.2890625 C-64.06515625 138.54140625 -62.64203125 137.79375 -61.17578125 137.0234375 C-59.27996913 136.0286054 -57.38413461 135.033816 -55.48828125 134.0390625 C-54.55371094 133.54792969 -53.61914062 133.05679688 -52.65625 132.55078125 C-47.29441676 129.73863095 -41.91385012 126.97625463 -36.48828125 124.2890625 C-36.34486688 113.29838533 -36.34486688 113.29838533 -37.26171875 102.359375 C-37.66283674 98.69398645 -37.76745679 94.96761082 -37.48828125 91.2890625 C-37.15828125 90.9590625 -36.82828125 90.6290625 -36.48828125 90.2890625 C-34.29778104 90.37924246 -32.10981525 90.53572458 -29.92578125 90.7265625 C-28.72824219 90.82839844 -27.53070313 90.93023437 -26.296875 91.03515625 C-24.90662109 91.16083984 -24.90662109 91.16083984 -23.48828125 91.2890625 C-23.64425781 90.67160156 -23.80023438 90.05414063 -23.9609375 89.41796875 C-25.59579419 82.30471813 -25.81076257 76.25650645 -23.48828125 69.2890625 C-23.48828125 68.2990625 -23.48828125 67.3090625 -23.48828125 66.2890625 C-22.31679849 63.84673015 -20.89091467 61.61217409 -19.48828125 59.2890625 C-20.41640625 59.3303125 -21.34453125 59.3715625 -22.30078125 59.4140625 C-25.48828125 59.2890625 -25.48828125 59.2890625 -28.48828125 57.2890625 C-27.88329904 50.87625111 -27.88329904 50.87625111 -26.33203125 48.5703125 C-23.6442043 46.70250055 -21.5305738 46.99737564 -18.30078125 47.1015625 C-17.21410156 47.12863281 -16.12742187 47.15570313 -15.0078125 47.18359375 C-13.76064453 47.23580078 -13.76064453 47.23580078 -12.48828125 47.2890625 C-12.36453125 46.03609375 -12.24078125 44.783125 -12.11328125 43.4921875 C-11.49878121 37.95735967 -10.49538777 32.51355527 -9.48828125 27.0390625 C-8.12642242 19.50910299 -7.02467224 12.1755232 -6.76171875 4.51953125 C-6.22817531 0.16734122 -3.82295539 0.00227309 0 0 Z " fill="#040404" transform="translate(129.48828125,6.7109375)"/>
<path d="M0 0 C5.53108642 0.11711254 10.43233392 1.30169033 15.69921875 2.9140625 C16.60978027 3.18476563 17.5203418 3.45546875 18.45849609 3.734375 C48.7743476 12.94911403 48.7743476 12.94911403 57.51171875 22.2890625 C57.8796877 25.96192374 57.33422458 28.2200033 55.53515625 31.40625 C55.11419678 32.17090576 54.6932373 32.93556152 54.25952148 33.72338867 C53.80649658 34.52881104 53.35347168 35.3342334 52.88671875 36.1640625 C47.11164956 46.78867625 41.69715522 57.10171008 40.51171875 69.2890625 C38.53171875 69.7840625 38.53171875 69.7840625 36.51171875 70.2890625 C36.84171875 68.3090625 37.17171875 66.3290625 37.51171875 64.2890625 C36.83367187 64.02480469 36.155625 63.76054688 35.45703125 63.48828125 C32.72564725 62.37616602 30.03715298 61.18923579 27.34814453 59.97900391 C20.5214668 56.92509804 13.62769137 54.0706321 6.63671875 51.4140625 C5.8772998 51.11604736 5.11788086 50.81803223 4.33544922 50.51098633 C-1.24492967 48.43300559 -6.5532867 47.63525758 -12.48828125 47.2890625 C-11.81395489 40.46150813 -10.72913816 33.78419027 -9.48828125 27.0390625 C-8.12642242 19.50910299 -7.02467224 12.1755232 -6.76171875 4.51953125 C-6.22817531 0.16734122 -3.82295539 0.00227309 0 0 Z " fill="#020202" transform="translate(129.48828125,6.7109375)"/>
<path d="M0 0 C5.12282759 -0.09945752 10.24508354 -0.17174409 15.36865234 -0.21972656 C17.10866089 -0.23974522 18.84860299 -0.26696886 20.58837891 -0.30175781 C23.10075346 -0.35070952 25.61223275 -0.37306587 28.125 -0.390625 C28.89303955 -0.41127014 29.6610791 -0.43191528 30.45239258 -0.45318604 C36.72447313 -0.45574621 41.97023949 1.21609198 46.65551758 5.5211792 C50.49399866 9.74319473 50.79047007 14.39876053 50.5546875 19.92578125 C49.38925631 26.38489636 45.92436208 31.16310892 41.25 35.625 C39 37 39 37 37 37 C42.94426141 49.32280675 53.45394963 68.84102982 66 75 C71.11137895 75.53413539 76.04635038 75.43027912 81 74 C77.73585321 77.91697614 74.97723753 79.0366637 70 80 C63.04981536 80.62782967 58.03982585 80.26409869 52.43359375 75.734375 C48.44687355 72.07140238 45.27448845 67.81981574 42.125 63.4375 C41.48111328 62.54611328 41.48111328 62.54611328 40.82421875 61.63671875 C38.61925569 58.51798721 36.62894609 55.39812015 34.8515625 52.015625 C34.49690918 51.37439697 34.14225586 50.73316895 33.77685547 50.07250977 C32.80681857 48.29180246 31.89363877 46.48046136 30.984375 44.66796875 C29.02603223 42.10827797 27.8470271 41.97299578 24.58398438 41.39697266 C21.04582011 41.13833231 17.54695548 41.00149534 14 41 C14.11811006 45.80567423 14.24234823 50.61113568 14.37231445 55.41650391 C14.41567538 57.05187653 14.45734961 58.68729477 14.49731445 60.32275391 C14.55498912 62.67103841 14.61869129 65.01909304 14.68359375 67.3671875 C14.70030624 68.10057343 14.71701874 68.83395935 14.73423767 69.58956909 C14.78637962 73.42202308 14.78637962 73.42202308 16 77 C17.32 77.66 18.64 78.32 20 79 C13.4 79 6.8 79 0 79 C1.32 78.01 2.64 77.02 4 76 C4.61085986 72.77499445 4.61085986 72.77499445 4.51757812 69.00585938 C4.5245874 68.29822952 4.53159668 67.59059967 4.53881836 66.86152649 C4.55642727 64.52186875 4.54476657 62.18342008 4.53125 59.84375 C4.53394411 58.21854419 4.53782586 56.59333994 4.54284668 54.96813965 C4.54874561 51.56177425 4.54016648 48.15582836 4.52148438 44.74951172 C4.49869411 40.38100546 4.51181515 36.01348209 4.53577423 31.6450119 C4.55022184 28.28896668 4.5456311 24.93315487 4.53526306 21.57710266 C4.53259288 19.96633285 4.53587579 18.3555419 4.54518127 16.74479675 C4.55533043 14.49400633 4.53987167 12.244812 4.51757812 9.99414062 C4.51439575 8.71301392 4.51121338 7.43188721 4.50793457 6.11193848 C4.30502197 2.90074978 4.30502197 2.90074978 1.96765137 1.06286621 C1.31832642 0.71212036 0.66900146 0.36137451 0 0 Z " fill="#EAEAEA" transform="translate(64,189)"/>
<path d="M0 0 C87.12 0 174.24 0 264 0 C264 92.4 264 184.8 264 280 C176.88 280 89.76 280 0 280 C0 187.6 0 95.2 0 0 Z M2 2 C2 93.08 2 184.16 2 278 C87.8 278 173.6 278 262 278 C262 186.92 262 95.84 262 2 C176.2 2 90.4 2 2 2 Z " fill="#FFFFFF" transform="translate(0,0)"/>
<path d="M0 0 C2.97 0.495 2.97 0.495 6 1 C6.19335938 1.61488281 6.38671875 2.22976562 6.5859375 2.86328125 C6.84632813 3.67152344 7.10671875 4.47976562 7.375 5.3125 C7.63023437 6.11300781 7.88546875 6.91351563 8.1484375 7.73828125 C8.98831811 10.22724528 8.98831811 10.22724528 11 13 C11.39917546 14.94598035 11.7252498 16.90759234 12 18.875 C12.56027909 22.86698853 13.23835012 26.35273228 15 30 C16.88316159 31.10836423 16.88316159 31.10836423 19 32 C21.25 33.9375 21.25 33.9375 23 36 C23 36.99 23 37.98 23 39 C20.69 39.66 18.38 40.32 16 41 C17.97903381 45.74244077 20.13806476 50.30652 22.5 54.875 C26.87946 63.55245768 29.4659764 70.21449562 29 80 C25.46962008 78.56027891 23.95603886 76.86210086 21.8125 73.75 C17.52551956 68.04922814 12.46577452 65.0143846 6.37890625 61.4765625 C-2.92446371 56.03001308 -2.92446371 56.03001308 -6 52 C-5.74557979 47.88384439 -3.00079935 45.08583212 -0.5625 41.9375 C4.04816081 36.7784933 4.04816081 36.7784933 6 30.5625 C4.59221815 26.955059 2.2816019 25.88517556 -1 24 C-0.608125 23.29875 -0.21625 22.5975 0.1875 21.875 C1.29783531 17.94612121 -0.12871573 16.52665113 -2 13 C-2.50529186 8.25025649 -1.43262954 4.47696732 0 0 Z " fill="#EFEFEF" transform="translate(167,85)"/>
<path d="M0 0 C16.52475248 0 16.52475248 0 21.828125 4.578125 C26.08037047 9.57801803 27.6562721 13.84916094 28.375 20.4375 C27.73813562 26.4877116 25.73691179 30.58875917 21 34.4375 C13.70558018 38.23667699 9.22308523 37 0 37 C0 24.79 0 12.58 0 0 Z " fill="#040404" transform="translate(78,191)"/>
<path d="M0 0 C4.62 0 9.24 0 14 0 C13.01 1.485 13.01 1.485 12 3 C11.6899783 6.20776509 11.6899783 6.20776509 11.72875977 9.93066406 C11.72091965 10.98247108 11.72091965 10.98247108 11.71292114 12.05552673 C11.70268307 13.5778403 11.69690107 15.10018885 11.69503975 16.62253571 C11.69137529 19.03601885 11.67464499 21.44909134 11.65428162 23.86248779 C11.59888944 30.72416526 11.56824642 37.58590419 11.54370117 44.44775391 C11.52777735 48.64644518 11.49750345 52.84484734 11.45893669 57.04338837 C11.44732411 58.63965523 11.44135667 60.23597393 11.44125557 61.83228302 C11.44106232 64.07241245 11.42270881 66.31175184 11.40063477 68.55175781 C11.39302879 70.46012421 11.39302879 70.46012421 11.38526917 72.40704346 C10.88374058 77.08421618 9.63321287 81.10309131 6.5 84.7421875 C1.72013048 88.35198479 -1.27256049 89.1261015 -7.1875 89.0625 C-8.27417969 89.05347656 -9.36085937 89.04445313 -10.48046875 89.03515625 C-11.31191406 89.02355469 -12.14335938 89.01195312 -13 89 C-10.28100232 87.51799687 -8.59618647 86.94332442 -5.4375 86.5 C-2.00157191 85.411473 -2.00157191 85.411473 -1.01959229 83.25927734 C1.56130569 74.95062604 1.39966733 66.72420485 1.328125 58.125 C1.32506173 56.50740739 1.32318993 54.88981213 1.32244873 53.2722168 C1.3178735 49.90354111 1.30354691 46.5351082 1.28125 43.16650391 C1.25278727 38.84436635 1.24201717 34.52241773 1.2375679 30.20019531 C1.23342002 26.86999624 1.22361078 23.53983538 1.21169281 20.20965576 C1.20599258 18.61481023 1.20123306 17.01996104 1.19742584 15.42510986 C1.19057519 13.20651717 1.17695331 10.98807581 1.16113281 8.76953125 C1.15430481 7.50729736 1.14747681 6.24506348 1.14044189 4.94458008 C1.20197082 2.06719623 1.20197082 2.06719623 0 0 Z " fill="#EEEEEE" transform="translate(47,119)"/>
<path d="M0 0 C7.59 0 15.18 0 23 0 C23 0.33 23 0.66 23 1 C20.03 1 17.06 1 14 1 C14 13.54 14 26.08 14 39 C18.29 39 22.58 39 27 39 C27 39.66 27 40.32 27 41 C22.71 41 18.42 41 14 41 C14.11811006 45.80567423 14.24234823 50.61113568 14.37231445 55.41650391 C14.41567538 57.05187653 14.45734961 58.68729477 14.49731445 60.32275391 C14.55498912 62.67103841 14.61869129 65.01909304 14.68359375 67.3671875 C14.70030624 68.10057343 14.71701874 68.83395935 14.73423767 69.58956909 C14.78637962 73.42202308 14.78637962 73.42202308 16 77 C17.32 77.66 18.64 78.32 20 79 C13.4 79 6.8 79 0 79 C1.32 78.01 2.64 77.02 4 76 C4.61085986 72.77499445 4.61085986 72.77499445 4.51757812 69.00585938 C4.5245874 68.29822952 4.53159668 67.59059967 4.53881836 66.86152649 C4.55642727 64.52186875 4.54476657 62.18342008 4.53125 59.84375 C4.53394411 58.21854419 4.53782586 56.59333994 4.54284668 54.96813965 C4.54874561 51.56177425 4.54016648 48.15582836 4.52148438 44.74951172 C4.49869411 40.38100546 4.51181515 36.01348209 4.53577423 31.6450119 C4.55022184 28.28896668 4.5456311 24.93315487 4.53526306 21.57710266 C4.53259288 19.96633285 4.53587579 18.3555419 4.54518127 16.74479675 C4.55533043 14.49400633 4.53987167 12.244812 4.51757812 9.99414062 C4.51439575 8.71301392 4.51121338 7.43188721 4.50793457 6.11193848 C4.28617454 2.49286206 4.28617454 2.49286206 0 0 Z " fill="#F0F0F0" transform="translate(64,189)"/>
<path d="M0 0 C0.33 2.31 0.66 4.62 1 7 C1.78375 6.21625 2.5675 5.4325 3.375 4.625 C8 0 8 0 11.875 -0.4375 C15.36047471 -0.36791702 15.78830525 -0.20626668 18.4375 2.375 C21.00402483 6.68676171 21.62383385 10.00054279 21 15 C19.12799694 20.82995238 16.14364518 24.73576363 11 28 C7.11390883 29.05448015 3.87799832 29.29266611 0 28 C0.33 31.3 0.66 34.6 1 38 C1.99 38.33 2.98 38.66 4 39 C4 39.66 4 40.32 4 41 C-0.29 41 -4.58 41 -9 41 C-9 40.34 -9 39.68 -9 39 C-8.01 38.34 -7.02 37.68 -6 37 C-5.66197325 34.45420623 -5.5112053 32.13850914 -5.48828125 29.5859375 C-5.46135445 28.49147812 -5.46135445 28.49147812 -5.43388367 27.37490845 C-5.37964868 25.04166465 -5.34584438 22.70862686 -5.3125 20.375 C-5.27933838 18.79424208 -5.2448498 17.21351139 -5.20898438 15.6328125 C-5.12391533 11.75535674 -5.05716822 7.87796345 -5 4 C-6.32 4 -7.64 4 -9 4 C-9 3.34 -9 2.68 -9 2 C-5.62902617 0.50178941 -3.79557881 0 0 0 Z " fill="#DADADA" transform="translate(172,215)"/>
<path d="M0 0 C0.33 2.64 0.66 5.28 1 8 C1.40992188 7.50628906 1.81984375 7.01257813 2.2421875 6.50390625 C2.78101563 5.86324219 3.31984375 5.22257813 3.875 4.5625 C4.40867188 3.92441406 4.94234375 3.28632813 5.4921875 2.62890625 C7.79702977 0.13896006 8.91922099 0.00747954 12.375 -0.3125 C16 0 16 0 18.375 1.875 C21.60566618 6.09971731 21.58766415 9.8186231 21 15 C19.22527205 20.69941205 16.20712201 24.97040174 11 28 C7.29254918 28.39375685 3.71176239 28.29720517 0 28 C0.06006078 29.45947705 0.1488689 30.91779272 0.25 32.375 C0.29640625 33.18710938 0.3428125 33.99921875 0.390625 34.8359375 C0.7922092 37.18838927 0.7922092 37.18838927 3.046875 38.2890625 C3.69140625 38.52367187 4.3359375 38.75828125 5 39 C5 39.66 5 40.32 5 41 C0.38 41 -4.24 41 -9 41 C-9 40.34 -9 39.68 -9 39 C-7.68 38.34 -6.36 37.68 -5 37 C-4.67 26.11 -4.34 15.22 -4 4 C-5.65 4 -7.3 4 -9 4 C-5.86025155 0.71753571 -4.76763047 0 0 0 Z " fill="#E8E8E8" transform="translate(139,215)"/>
<path d="M0 0 C6.67807487 5.76742829 6.67807487 5.76742829 7.30078125 10.0859375 C7.32549989 14.91431217 7.08954043 18.04538825 4 22 C3 23 3 23 -0.1875 23.375 C-5.00843572 22.9008096 -6.68912387 21.46487037 -10 18 C-12.37589854 14.00417063 -12.77201514 9.54937492 -12 5 C-8.52395169 -0.44580902 -6.27345013 -1.72212357 0 0 Z " fill="#040404" transform="translate(79,157)"/>
<path d="M0 0 C0.33 2.64 0.66 5.28 1 8 C1.763125 7.05125 2.52625 6.1025 3.3125 5.125 C5.15534046 2.83390105 6.46837417 1.68775056 9 0 C12.0625 -0.25 12.0625 -0.25 15 0 C17.60088622 2.60088622 17.29962225 3.82137113 17.4140625 7.4453125 C17.45273438 8.52167969 17.49140625 9.59804687 17.53125 10.70703125 C17.5621875 11.83496094 17.593125 12.96289062 17.625 14.125 C17.66367188 15.26066406 17.70234375 16.39632812 17.7421875 17.56640625 C17.83667601 20.37743956 17.92223541 23.18846233 18 26 C19.32 26.66 20.64 27.32 22 28 C18.7 28 15.4 28 12 28 C12 20.41 12 12.82 12 5 C10.68 4.67 9.36 4.34 8 4 C4.3533031 6.95208797 2.41910667 9.56851691 1 14 C0.76028911 16.89651829 0.76028911 16.89651829 0.875 19.8125 C0.89304688 20.78832031 0.91109375 21.76414063 0.9296875 22.76953125 C0.95289063 23.50558594 0.97609375 24.24164063 1 25 C2.32 25.66 3.64 26.32 5 27 C5 27.33 5 27.66 5 28 C0.38 28 -4.24 28 -9 28 C-8.01 27.01 -7.02 26.02 -6 25 C-5.49753325 22.68749164 -5.49753325 22.68749164 -5.48828125 20.11328125 C-5.43510742 18.7065918 -5.43510742 18.7065918 -5.38085938 17.27148438 C-5.35830078 16.29501953 -5.33574219 15.31855469 -5.3125 14.3125 C-5.27833984 13.32443359 -5.24417969 12.33636719 -5.20898438 11.31835938 C-5.12649462 8.87901947 -5.05734932 6.44003937 -5 4 C-6.32 3.67 -7.64 3.34 -9 3 C-3.375 0 -3.375 0 0 0 Z " fill="#DCDCDC" transform="translate(136,154)"/>
<path d="M0 0 C2.67391216 2.85217297 3.25097359 5.51812388 3.5 9.3125 C3.3034895 14.41322897 1.64703039 18.38953132 -2 22 C-5.88090052 23.3167341 -8.00249556 23.25468198 -11.9375 22.25 C-14.9332663 18.98189131 -14.74472634 16.26320037 -14.56640625 11.9375 C-13.64496455 7.15871273 -11.2211014 3.58827358 -8 0 C-5.00422405 -1.49788797 -3.16806651 -0.90516186 0 0 Z " fill="#080808" transform="translate(153,219)"/>
<path d="M0 0 C2.5625 0.5 2.5625 0.5 4.875 2.375 C7.26470207 6.8003742 7.218107 10.57109922 6.5625 15.5 C5.07908647 19.57938721 3.55199951 22.5622431 -0.4375 24.5 C-4.31476431 24.26261647 -6.17826883 23.67282078 -9.4375 21.5 C-10.35740351 15.96400412 -10.17341153 10.9464468 -7.625 5.9375 C-6.903125 5.133125 -6.18125 4.32875 -5.4375 3.5 C-4.963125 2.88125 -4.48875 2.2625 -4 1.625 C-2.4375 0.5 -2.4375 0.5 0 0 Z " fill="#040404" transform="translate(181.4375,217.5)"/>
<path d="M0 0 C7.15667052 1.22328016 13.81946305 3.11046535 20.625 5.625 C21.57197754 5.97111328 22.51895508 6.31722656 23.49462891 6.67382812 C31.98598737 9.85218182 40.02474258 13.70387279 48 18 C47.67 20.97 47.34 23.94 47 27 C42.4140369 27 41.4667956 26.25942314 37.8125 23.6875 C36.75417969 22.96175781 35.69585937 22.23601562 34.60546875 21.48828125 C34.02845215 21.08947754 33.45143555 20.69067383 32.85693359 20.27978516 C22.28839605 12.99602578 12.05961256 6.52952168 0 2 C0 1.34 0 0.68 0 0 Z " fill="#EAEAEA" transform="translate(119,53)"/>
<path d="M0 0 C3.0625 2.1875 3.0625 2.1875 5 5 C5 6.65 5 8.3 5 10 C-1.27 10 -7.54 10 -14 10 C-13.566875 11.588125 -13.13375 13.17625 -12.6875 14.8125 C-12.44386719 15.70582031 -12.20023438 16.59914062 -11.94921875 17.51953125 C-10.95594727 20.11511721 -10.23359596 21.36878195 -8 23 C-3.03838948 23.40012988 0.47806839 23.2609658 5 21 C5 20.34 5 19.68 5 19 C5.66 19 6.32 19 7 19 C5.27592413 23.38855677 2.17026127 25.91486937 -2 28 C-5.90853153 28.68790155 -9.45288374 28.94458822 -12.92578125 26.82421875 C-16.37357991 23.37642009 -17.41773348 20.34736215 -17.625 15.5 C-17.26776682 9.30795822 -15.38355234 5.73667121 -11.3125 1.0625 C-7.57790161 -0.65339656 -4.02040092 -0.76545 0 0 Z " fill="#EBEBEB" transform="translate(213,215)"/>
<path d="M0 0 C3.40495873 1.24411954 5.43917821 2.38309603 7.875 5.0625 C9.76388211 9.99458106 9.90855858 14.98289983 8.37890625 20.0625 C6.29601128 24.3578923 3.42602873 26.47813055 -0.91796875 28.33984375 C-5.72177269 29.8630011 -8.851001 29.58533911 -13.3125 27.3125 C-16.79257182 24.3180196 -17.71492939 22.40528325 -18.25 17.890625 C-18.54489118 12.39827681 -17.6919173 9.2906066 -14 5 C-9.13691505 0.71585374 -6.54615737 -0.43641049 0 0 Z M-13 6 C-14.60089019 9.20178039 -14.3573266 12.51768987 -14 16 C-12.30532984 20.63804466 -10.27526953 23.47370437 -6 26 C-1.28318019 26.60974423 -1.28318019 26.60974423 2.875 24.6875 C5.63653013 20.5452048 5.71447 15.78694898 5 11 C3.31888912 7.4293205 1.17006809 4.815502 -2.0625 2.5625 C-7.18996799 1.07388026 -9.32698037 2.62479278 -13 6 Z " fill="#E1E1E1" transform="translate(81,154)"/>
<path d="M0 0 C0.33 2.31 0.66 4.62 1 7 C1.515625 6.195625 2.03125 5.39125 2.5625 4.5625 C5.63205757 1.33552922 7.64868459 1.25103743 12 1 C12 3.97 12 6.94 12 10 C11.34 10 10.68 10 10 10 C9.67 8.68 9.34 7.36 9 6 C6.59122743 6.11341534 6.59122743 6.11341534 4 7 C0.68631825 11.37879374 -0.14176194 15.36018811 -0.0625 20.75 C-0.04896484 21.94882813 -0.04896484 21.94882813 -0.03515625 23.171875 C-0.02355469 23.77515625 -0.01195312 24.3784375 0 25 C1.98 25.66 3.96 26.32 6 27 C6 27.66 6 28.32 6 29 C0.72 29 -4.56 29 -10 29 C-10 28.34 -10 27.68 -10 27 C-8.68 27 -7.36 27 -6 27 C-5.67 19.74 -5.34 12.48 -5 5 C-6.65 5 -8.3 5 -10 5 C-7.31217681 1.88778367 -4.19734673 0 0 0 Z " fill="#DFDFDF" transform="translate(232,214)"/>
<path d="M0 0 C0 7.26 0 14.52 0 22 C1.32 21.01 2.64 20.02 4 19 C2.17234727 23.69967846 2.17234727 23.69967846 0.953125 25.82421875 C-0.22288313 28.50879469 -0.33521265 30.63812981 -0.375 33.5625 C-0.40335938 34.51253906 -0.43171875 35.46257812 -0.4609375 36.44140625 C-0.19888879 39.56015275 -0.19888879 39.56015275 4 42 C-0.62 42 -5.24 42 -10 42 C-8.68 41.34 -7.36 40.68 -6 40 C-6 28.78 -6 17.56 -6 6 C-7.32 5.34 -8.64 4.68 -10 4 C-8.71086513 3.32845067 -7.41859796 2.66291141 -6.125 2 C-5.40570313 1.62875 -4.68640625 1.2575 -3.9453125 0.875 C-2 0 -2 0 0 0 Z " fill="#EDEDED" transform="translate(103,140)"/>
<path d="M0 0 C2.375 0.5 2.375 0.5 3.99804688 2.22631836 C5.58676997 4.84968328 5.75556121 6.33624364 5.78125 9.37890625 C5.80316406 10.29994141 5.82507813 11.22097656 5.84765625 12.16992188 C5.86592234 14.10221319 5.88415136 16.03450486 5.90234375 17.96679688 C5.92425781 18.88654297 5.94617188 19.80628906 5.96875 20.75390625 C5.97583984 21.59252197 5.98292969 22.4311377 5.99023438 23.29516602 C6.23279103 25.93281051 6.23279103 25.93281051 9.375 28.5 C6.075 28.5 2.775 28.5 -0.625 28.5 C-0.625 20.91 -0.625 13.32 -0.625 5.5 C-4.42288698 4.37873219 -4.42288698 4.37873219 -7.625 4.5 C-5.11016484 2.20072214 -3.3892824 0.6455776 0 0 Z " fill="#E1E1E1" transform="translate(114.625,153.5)"/>
<path d="M0 0 C0.33 7.92 0.66 15.84 1 24 C2.32 24.66 3.64 25.32 5 26 C5 26.66 5 27.32 5 28 C0.38 28 -4.24 28 -9 28 C-9 27.34 -9 26.68 -9 26 C-7.68 25.34 -6.36 24.68 -5 24 C-4.67 17.4 -4.34 10.8 -4 4 C-5.65 4 -7.3 4 -9 4 C-9 3.34 -9 2.68 -9 2 C-5.62902617 0.50178941 -3.79557881 0 0 0 Z " fill="#E7E7E7" transform="translate(123,215)"/>
<path d="M0 0 C2.60088622 2.60088622 2.29962225 3.82137113 2.4140625 7.4453125 C2.47207031 9.05986328 2.47207031 9.05986328 2.53125 10.70703125 C2.5621875 11.83496094 2.593125 12.96289062 2.625 14.125 C2.66367188 15.26066406 2.70234375 16.39632812 2.7421875 17.56640625 C2.83667601 20.37743956 2.92223541 23.18846233 3 26 C4.32 26.66 5.64 27.32 7 28 C3.7 28 0.4 28 -3 28 C-3 20.41 -3 12.82 -3 5 C-6.63619656 3.91915479 -6.63619656 3.91915479 -9 4 C-9 3.34 -9 2.68 -9 2 C-5.54754176 -0.30163882 -4.05261287 -0.34490322 0 0 Z " fill="#F0F0F0" transform="translate(151,154)"/>
<path d="M0 0 C3.125 0.4375 3.125 0.4375 5.4375 2.8125 C8.17609191 7.07253186 8.68377914 10.4084877 8.125 15.4375 C6.625 18.9375 6.625 18.9375 5.125 21.4375 C4.465 21.1075 3.805 20.7775 3.125 20.4375 C2.76556187 17.43004929 2.6806644 14.44396697 2.56640625 11.41796875 C2.0845434 8.16432847 1.36155079 6.79951584 -0.875 4.4375 C-2.95834635 3.1858533 -2.95834635 3.1858533 -4.875 2.4375 C-2.875 0.4375 -2.875 0.4375 0 0 Z " fill="#E3E3E3" transform="translate(184.875,214.5625)"/>
<path d="M0 0 C4.01349645 0.28001138 5.72035142 0.75763789 8.8125 3.4375 C11.76582765 6.89711239 12.15508348 8.53948743 12.1875 13 C12.20167969 13.886875 12.21585938 14.77375 12.23046875 15.6875 C12 18 12 18 10 20 C9.34 20 8.68 20 8 20 C7.97421875 19.41992188 7.9484375 18.83984375 7.921875 18.2421875 C7.52610364 12.79133645 6.66178989 9.28952531 3 5 C0.89960669 3.61131484 0.89960669 3.61131484 -1 3 C-0.67 2.01 -0.34 1.02 0 0 Z " fill="#E7E7E7" transform="translate(78,154)"/>
<path d="M0 0 C1.9375 1.8125 1.9375 1.8125 3 4 C3 4.99 3 5.98 3 7 C-1.62 7 -6.24 7 -11 7 C-9.31021751 0.24087002 -6.98943586 -0.87367948 0 0 Z " fill="#0D0D0D" transform="translate(211,217)"/>
<path d="M0 0 C0.928125 0.0825 1.85625 0.165 2.8125 0.25 C3.4725 1.9 4.1325 3.55 4.8125 5.25 C1.8425 5.25 -1.1275 5.25 -4.1875 5.25 C-3.5275 6.9 -2.8675 8.55 -2.1875 10.25 C1.44135324 10.40149298 1.44135324 10.40149298 4.8125 9.25 C4.4825 10.24 4.1525 11.23 3.8125 12.25 C-2.58846618 13.57850242 -2.58846618 13.57850242 -5.125 12.1875 C-6.66998122 9.3701813 -6.57502719 7.41480542 -6.1875 4.25 C-4.54235479 0.77691566 -3.88782193 0.30492721 0 0 Z " fill="#717171" transform="translate(167.1875,193.75)"/>
<path d="M0 0 C3.0625 2.1875 3.0625 2.1875 5 5 C5.3125 7.8125 5.3125 7.8125 5 10 C3.35 10 1.7 10 0 10 C-0.144375 9.21625 -0.28875 8.4325 -0.4375 7.625 C-0.87798925 5.03578982 -0.87798925 5.03578982 -2 3 C-7.32170494 2.70437633 -7.32170494 2.70437633 -12 5 C-12.33 4.34 -12.66 3.68 -13 3 C-9.33078863 -0.8287423 -4.97619479 -0.94742499 0 0 Z " fill="#DADADA" transform="translate(213,215)"/>
<path d="M0 0 C0.66 0 1.32 0 2 0 C2 1.65 2 3.3 2 5 C2.99 5.33 3.98 5.66 5 6 C4.01 6 3.02 6 2 6 C2.33 9.63 2.66 13.26 3 17 C1.68 16.67 0.36 16.34 -1 16 C-1.22384382 14.27277272 -1.42839969 12.54303993 -1.625 10.8125 C-1.74101562 9.84957031 -1.85703125 8.88664063 -1.9765625 7.89453125 C-2.00194942 4.75924677 -1.34359283 2.80513465 0 0 Z " fill="#BEBEBE" transform="translate(139,190)"/>
<path d="M0 0 C1.65 0.33 3.3 0.66 5 1 C5 4.63 5 8.26 5 12 C5.66 12.33 6.32 12.66 7 13 C5.35 13 3.7 13 2 13 C2 9.37 2 5.74 2 2 C1.01 1.67 0.02 1.34 -1 1 C-0.67 0.67 -0.34 0.34 0 0 Z " fill="#B3B3B3" transform="translate(153,194)"/>
<path d="M0 0 C0.66 0 1.32 0 2 0 C2.06058594 1.20398438 2.12117187 2.40796875 2.18359375 3.6484375 C2.26799732 5.22397077 2.35264541 6.79949096 2.4375 8.375 C2.47681641 9.1690625 2.51613281 9.963125 2.55664062 10.78125 C2.68893404 15.02601221 2.68893404 15.02601221 4 19 C2.02 19 0.04 19 -2 19 C-1.34 18.67 -0.68 18.34 0 18 C0 12.06 0 6.12 0 0 Z " fill="#E0E0E0" transform="translate(147,188)"/>
<path d="M0 0 C2.625 -0.1875 2.625 -0.1875 5 0 C5 2.97 5 5.94 5 9 C4.34 9 3.68 9 3 9 C2.87625 8.071875 2.87625 8.071875 2.75 7.125 C2.18741541 4.81562433 2.18741541 4.81562433 -0.0625 3.75 C-0.701875 3.5025 -1.34125 3.255 -2 3 C-1.34 2.01 -0.68 1.02 0 0 Z " fill="#EEEEEE" transform="translate(239,215)"/>
<path d="M0 0 C0.33 0 0.66 0 1 0 C1.66 2.31 2.32 4.62 3 7 C6.62885324 7.15149298 6.62885324 7.15149298 10 6 C9.67 6.99 9.34 7.98 9 9 C2.59903382 10.32850242 2.59903382 10.32850242 0.0625 8.9375 C-1.43409881 6.20840805 -1.26587831 4.05760057 -1 1 C-0.67 0.67 -0.34 0.34 0 0 Z " fill="#CFCFCF" transform="translate(162,197)"/>
<path d="M0 0 C0 1.65 0 3.3 0 5 C-1.32 5 -2.64 5 -4 5 C-4 9.29 -4 13.58 -4 18 C-4.33 18 -4.66 18 -5 18 C-5.08119503 15.75059705 -5.13927819 13.50035129 -5.1875 11.25 C-5.22230469 9.99703125 -5.25710937 8.7440625 -5.29296875 7.453125 C-4.97998906 3.76413775 -4.32735588 0 0 0 Z " fill="#BDBDBD" transform="translate(161,243)"/>
<path d="M0 0 C1.65 0.33 3.3 0.66 5 1 C4.67 2.65 4.34 4.3 4 6 C2.0625 5.6875 2.0625 5.6875 0 5 C-0.33 4.01 -0.66 3.02 -1 2 C-0.67 1.34 -0.34 0.68 0 0 Z " fill="#CECECE" transform="translate(119,202)"/>
<path d="M0 0 C0.66 0.66 1.32 1.32 2 2 C1.9375 3.875 1.9375 3.875 1 6 C-3.33333333 10 -3.33333333 10 -6 10 C-6 9.34 -6 8.68 -6 8 C-4.33333333 6.33333333 -2.66666667 4.66666667 -1 3 C-0.67 2.01 -0.34 1.02 0 0 Z " fill="#C6C6C6" transform="translate(187,233)"/>
<path d="M0 0 C0.33 0.99 0.66 1.98 1 3 C-3.625 7.875 -3.625 7.875 -7 9 C-9.1875 8.0625 -9.1875 8.0625 -11 7 C-9.88625 6.7525 -8.7725 6.505 -7.625 6.25 C-3.95791272 5.40634018 -3.95791272 5.40634018 -2.6875 2.9375 C-2.460625 2.298125 -2.23375 1.65875 -2 1 C-1.34 0.67 -0.68 0.34 0 0 Z " fill="#D7D7D7" transform="translate(87,173)"/>
<path d="M0 0 C0.66 0 1.32 0 2 0 C0.50902342 3.7952131 -1.75700849 5.61042731 -5 8 C-5.33 7.34 -5.66 6.68 -6 6 C-4.71034824 4.62437146 -3.37310707 3.29233607 -2 2 C-1.34 2 -0.68 2 0 2 C0 1.34 0 0.68 0 0 Z " fill="#BFBFBF" transform="translate(218,234)"/>
</svg>
