<?xml version="1.0" encoding="UTF-8"?>
<svg version="1.1" xmlns="http://www.w3.org/2000/svg" width="768" height="768">
<path d="M0 0 C1.03930664 0.34901367 1.03930664 0.34901367 2.09960938 0.70507812 C31.73910805 10.66418751 59.04035575 27.05754161 83 47 C83.51498047 47.42474609 84.02996094 47.84949219 84.56054688 48.28710938 C96.69152663 58.32312413 108.18059007 69.00084508 117.9453125 81.39453125 C119.27994324 83.08692423 120.64850018 84.75329583 122.0546875 86.38671875 C162.05365267 133.05217811 182.20280335 196.28771351 182.25 257.125 C182.25101212 258.3076947 182.25101212 258.3076947 182.25204468 259.51428223 C182.22149828 282.15515554 179.30771897 303.98958873 174 326 C173.79036621 326.87398438 173.58073242 327.74796875 173.36474609 328.6484375 C166.85100974 355.04436372 155.79947361 382.34791404 139.73291016 404.38916016 C134.73113499 410.84391516 134.73113499 410.84391516 132.8828125 418.53125 C133.6551559 421.56063577 134.74561931 424.14534628 136 427 C137.30194974 433.27158716 137.11393726 439.56323697 137.0625 445.9375 C137.05798828 447.00291016 137.05347656 448.06832031 137.04882812 449.16601562 C137.03711787 451.77740291 137.02071724 454.38867124 137 457 C136.01 457.33 135.02 457.66 134 458 C132 457 132 457 131.28564453 455.16162109 C130.96249268 453.97947021 130.96249268 453.97947021 130.6328125 452.7734375 C130.26349609 451.47212891 130.26349609 451.47212891 129.88671875 450.14453125 C129.38544836 448.32196351 128.88541451 446.49905515 128.38671875 444.67578125 C126.84525172 439.25269259 125.01857705 434.76961309 122 430 C119.01779843 433.2546603 119.01779843 433.2546603 116.07763672 436.54711914 C114.04434336 438.84734111 112.07894379 440.93958517 109.63671875 442.80859375 C107.157569 444.81598297 106.08177461 445.96836005 105 449 C105.1753312 453.90574343 106.4509108 458.61564458 107.68359375 463.34375 C111.11670099 477.1367632 111.2678282 490.8842625 111.125 505 C111.11493498 506.75780731 111.10581545 508.51562031 111.09765625 510.2734375 C111.07595647 514.51576925 111.04162768 518.75781894 111 523 C109.35 523.33 107.7 523.66 106 524 C104.84929377 521.69858754 104.70898114 519.99380932 104.45703125 517.43359375 C102.58625795 499.89509405 99.56051168 482.49948123 93.55078125 465.85522461 C93 464 93 464 93 461 C92.40316406 461.49886719 91.80632813 461.99773437 91.19140625 462.51171875 C63.41736026 485.49855919 34.10834586 503.84528609 0 516 C-0.87382324 516.31807617 -1.74764648 516.63615234 -2.64794922 516.96386719 C-69.72817867 541.09308334 -146.10068139 534.44664566 -210.08789062 504.55761719 C-229.86787836 495.02937358 -248.12684457 483.02489836 -265 469 C-265.85102295 468.30124756 -265.85102295 468.30124756 -266.71923828 467.58837891 C-278.81189191 457.63071341 -290.23261772 446.93311982 -299.9453125 434.60546875 C-301.27994324 432.91307577 -302.64850018 431.24670417 -304.0546875 429.61328125 C-330.19453507 399.11679241 -347.52436819 360.75337062 -357 322 C-357.19577637 321.2147998 -357.39155273 320.42959961 -357.59326172 319.62060547 C-366.12117321 284.83119536 -366.09661514 248.29677082 -361 213 C-389.43824482 225.34712693 -389.43824482 225.34712693 -417.16186523 239.17114258 C-419.49113157 240.22146257 -420.64256841 239.84193985 -423 239 C-423 237.68 -423 236.36 -423 235 C-421.25 233.296875 -421.25 233.296875 -419 231.75 C-417.88625 230.96882813 -417.88625 230.96882813 -416.75 230.171875 C-416.1725 229.78515625 -415.595 229.3984375 -415 229 C-415.92039062 229.50660156 -415.92039062 229.50660156 -416.859375 230.0234375 C-419.4056713 231.18506902 -420.42143135 230.92091738 -423 230 C-422.89453125 227.78515625 -422.89453125 227.78515625 -422 225 C-419.90754119 223.23744711 -417.99462773 221.8604449 -415.6875 220.4375 C-414.68541504 219.79796387 -414.68541504 219.79796387 -413.66308594 219.14550781 C-411.4527807 217.7457489 -409.22737108 216.37241094 -407 215 C-405.89422607 214.30511475 -405.89422607 214.30511475 -404.76611328 213.59619141 C-391.17078563 205.0598633 -377.0427571 197.67428103 -362.72875977 190.43530273 C-361.82826904 189.96165283 -360.92777832 189.48800293 -360 189 C-358.63560791 188.2869873 -358.63560791 188.2869873 -357.24365234 187.55957031 C-354.73609751 185.81656049 -354.20627595 185.00174484 -353.41015625 182.11328125 C-353.18634277 181.34741699 -352.9625293 180.58155273 -352.73193359 179.79248047 C-352.51102051 178.97408691 -352.29010742 178.15569336 -352.0625 177.3125 C-351.55954231 175.59140572 -351.05296558 173.87136533 -350.54296875 172.15234375 C-350.28950684 171.28851074 -350.03604492 170.42467773 -349.77490234 169.53466797 C-348.62037801 165.75827488 -347.27526222 162.0661933 -345.875 158.375 C-345.41867187 157.16585937 -344.96234375 155.95671875 -344.4921875 154.7109375 C-342.7681129 150.42331743 -340.90569965 146.2093719 -339 142 C-379.20105364 146.09262916 -419.0772036 151.78494131 -458.54248047 160.56176758 C-459.2855545 160.72586624 -460.02862854 160.8899649 -460.79421997 161.05903625 C-462.77131699 161.49783501 -464.74658137 161.94486887 -466.72167969 162.39257812 C-469.58619907 162.92332911 -472.10027665 163.12936592 -475 163 C-475 161.35 -475 159.7 -475 158 C-467.41 155.36 -459.82 152.72 -452 150 C-457.6999953 151.31042501 -457.6999953 151.31042501 -463.3972168 152.6328125 C-467.32727698 153.52134018 -470.94057895 154.26456512 -475 154 C-475 152.35 -475 150.7 -475 149 C-433.26413748 134.13171721 -389.69337344 124.21547339 -345.94248962 117.5164032 C-344.55017926 117.30278717 -343.15836117 117.08593291 -341.7671051 116.86555481 C-338.6808824 116.38114887 -335.61397025 115.96288227 -332.50366211 115.66381836 C-326.92781417 115.13851111 -326.92781417 115.13851111 -322.15649414 112.48999023 C-320.61100756 110.54957695 -319.39520386 108.60311419 -318.1875 106.4375 C-317.29123382 104.98563652 -316.39280247 103.53510737 -315.4921875 102.0859375 C-315.07163086 101.38436523 -314.65107422 100.68279297 -314.21777344 99.95996094 C-312.1277037 96.59607163 -309.63320893 93.57541242 -307.14453125 90.50390625 C-305.89906547 89.18235445 -305.89906547 89.18235445 -306 88 C-351.40628041 83.18609342 -396.37645646 81.50490223 -442 81 C-442.33 79.35 -442.66 77.7 -443 76 C-440.52159495 74.76079748 -438.53796776 74.69268965 -435.7734375 74.46484375 C-434.84450684 74.38613037 -433.91557617 74.30741699 -432.95849609 74.22631836 C-431.77594238 74.1310083 -430.59338867 74.03569824 -429.375 73.9375 C-425.62125 73.628125 -421.8675 73.31875 -418 73 C-425.92 72.67 -433.84 72.34 -442 72 C-442.33 70.35 -442.66 68.7 -443 67 C-440.690964 65.845482 -439.01206271 65.72299431 -436.44140625 65.5 C-435.49587891 65.4175 -434.55035156 65.335 -433.57617188 65.25 C-432.58166016 65.1675 -431.58714844 65.085 -430.5625 65 C-429.63373047 64.9175 -428.70496094 64.835 -427.74804688 64.75 C-408.47424136 63.10639766 -389.23792648 62.7743105 -369.90454102 62.75363922 C-367.72898099 62.7499645 -365.55347356 62.74188918 -363.37792969 62.73284912 C-348.40082869 62.67699883 -333.51357732 62.76445709 -318.578125 64.0234375 C-317.48828308 64.11258423 -316.39844116 64.20173096 -315.27557373 64.2935791 C-310.25124348 64.71781367 -305.24740116 65.21033161 -300.24121094 65.81152344 C-291.11386506 66.9793402 -291.11386506 66.9793402 -282.74194336 63.98364258 C-280.21013048 61.459754 -278.10947808 58.87972788 -276 56 C-274.22153845 54.43949854 -272.41727375 52.90648081 -270.5625 51.4375 C-266.53750562 48.23511274 -266.53750562 48.23511274 -262.59765625 44.9296875 C-191.62353098 -15.8412065 -86.89427364 -30.2824073 0 0 Z " fill="#2494FE" transform="translate(475,126)"/>
<path d="M0 0 C1.03930664 0.34901367 1.03930664 0.34901367 2.09960938 0.70507812 C31.73910805 10.66418751 59.04035575 27.05754161 83 47 C83.51498047 47.42474609 84.02996094 47.84949219 84.56054688 48.28710938 C96.69152663 58.32312413 108.18059007 69.00084508 117.9453125 81.39453125 C119.27994324 83.08692423 120.64850018 84.75329583 122.0546875 86.38671875 C162.05365267 133.05217811 182.20280335 196.28771351 182.25 257.125 C182.25067474 257.91346313 182.25134949 258.70192627 182.25204468 259.51428223 C182.22149828 282.15515554 179.30771897 303.98958873 174 326 C173.79036621 326.87398438 173.58073242 327.74796875 173.36474609 328.6484375 C165.86132957 359.05489216 152.11699591 390.06072684 133 415 C132.34 415 131.68 415 131 415 C130.52691406 413.99582031 130.05382812 412.99164062 129.56640625 411.95703125 C123.85813025 400.06405888 117.66262084 389.16710182 108 380 C108 379.34 108 378.68 108 378 C107.41734375 377.7421875 106.8346875 377.484375 106.234375 377.21875 C103.81525463 375.8992298 102.21942697 374.42216072 100.25 372.5 C88.60688738 362.01361355 74.24498598 355.2115849 60 349 C59.04335449 348.57509277 59.04335449 348.57509277 58.06738281 348.14160156 C36.52031537 338.73438216 12.18672532 334.86666739 -11 332 C-12.33683838 331.83226074 -12.33683838 331.83226074 -13.70068359 331.66113281 C-23.76996778 330.45866037 -33.82368941 329.96584273 -43.95703125 329.765625 C-44.84904739 329.7474321 -45.74106354 329.7292392 -46.66011047 329.710495 C-51.13879026 329.62283947 -55.6165656 329.5543294 -60.09594727 329.5168457 C-86.18769656 329.19271106 -111.29841918 323.52068982 -130.37890625 304.71875 C-144.58892443 289.97929746 -150.69488701 272.42599759 -150.54077148 252.13989258 C-149.97605794 235.4830093 -142.75667505 221.75125609 -130.73046875 210.2890625 C-114.12002065 196.36385136 -94.43934665 194.53972333 -73.65087891 196.18603516 C-44.62670071 199.49942076 -16.23671568 212.513915 9.98706055 224.61279297 C11.97227404 225.52681801 13.96857876 226.41718258 15.97583008 227.28173828 C22.68556366 230.30962874 22.68556366 230.30962874 24.23828125 233.71875 C24.26277344 234.6365625 24.28726562 235.554375 24.3125 236.5 C24.46386762 240.21633598 24.71291194 241.63856211 27.06640625 244.6015625 C30.41665799 247.3406498 33.71879716 249.07360028 37.625 250.875 C51.56654146 257.61932361 62.15773013 266.05520275 73 277 C77.42709138 275.03694793 80.78538172 271.96870533 84.46484375 268.875 C86.92770084 267.05347242 89.11654221 265.99038264 92 265 C91.67 263.68 91.34 262.36 91 261 C90.24976563 260.85304688 89.49953125 260.70609375 88.7265625 260.5546875 C81.16166594 258.89688901 75.36327845 256.38203791 69 252 C67.989375 251.360625 66.97875 250.72125 65.9375 250.0625 C64 248 64 248 63.625 244.875 C62.85003138 240.07019455 60.91402912 237.65018591 57.99609375 233.83984375 C56 231 56 231 54.28515625 227.50390625 C52.45216192 223.84192853 50.85385698 220.94779271 48 218 C44.12772262 217.19002699 40.64786536 217.24959047 36.69921875 217.3203125 C31.26881173 216.85009774 28.79016309 214.52734354 25.09765625 210.69921875 C21.78022286 206.43041712 19.25459377 201.9032832 17 197 C16.01 197 15.02 197 14 197 C13.34 199.64 12.68 202.28 12 205 C5.26744347 199.71956351 0.81012718 194.17491542 -2 186 C-2.99 186 -3.98 186 -5 186 C-5.66 189.3 -6.32 192.6 -7 196 C-13.43900602 193.48721716 -18.11192266 188.91576603 -21.109375 182.69921875 C-21.81471517 180.8260748 -22.41858868 178.9152373 -23 177 C-23.99 177.33 -24.98 177.66 -26 178 C-26.80212628 179.87387216 -26.80212628 179.87387216 -27.1875 182.0625 C-27.45833333 183.375 -27.72916667 184.6875 -28 186 C-28.55252441 185.81171631 -29.10504883 185.62343262 -29.67431641 185.42944336 C-50.69388118 178.33450437 -72.34524202 174.09899343 -94.5625 173.5625 C-102.02289283 173.34838945 -107.91596552 172.74793279 -114 168 C-114.69867188 167.46632813 -115.39734375 166.93265625 -116.1171875 166.3828125 C-127.97440282 155.95741186 -133.86302956 136.38918648 -135 121 C-135.10026963 117.99784827 -135.09633307 115.00333599 -135.0625 112 C-135.05798828 111.22527344 -135.05347656 110.45054687 -135.04882812 109.65234375 C-135.03719758 107.76819476 -135.01926906 105.88408635 -135 104 C-136.7634375 103.443125 -136.7634375 103.443125 -138.5625 102.875 C-142.71861111 101.49393202 -146.75824413 99.90534028 -150.8125 98.25 C-165.7034375 92.22941044 -180.65173445 87.32712576 -196.29321289 83.67016602 C-199.47069151 82.88346278 -202.6130703 81.99064413 -205.765625 81.109375 C-215.53353065 78.4454862 -225.47832604 76.71771083 -235.4375 74.9375 C-236.40445801 74.76224792 -237.37141602 74.58699585 -238.36767578 74.40643311 C-250.65620905 72.18156557 -262.91811569 70.09788432 -275.34936523 68.83569336 C-276.19313721 68.74811768 -277.03690918 68.66054199 -277.90625 68.5703125 C-278.61072266 68.50602051 -279.31519531 68.44172852 -280.04101562 68.37548828 C-282.28467058 67.94543577 -284.00861874 67.10105767 -286 66 C-280.19517805 59.96852556 -274.29732933 54.41085928 -267.74609375 49.1953125 C-266.00532668 47.80368933 -264.28589272 46.38459047 -262.59765625 44.9296875 C-191.62353098 -15.8412065 -86.89427364 -30.2824073 0 0 Z " fill="#2779FE" transform="translate(475,126)"/>
<path d="M0 0 C1.08769558 -0.00066278 1.08769558 -0.00066278 2.19736481 -0.00133896 C40.00426926 -0.01338165 77.22456927 2.13298314 114.5625 8.25 C115.35912048 8.3797522 116.15574097 8.50950439 116.97650146 8.64318848 C156.4830063 15.10464658 196.38343028 23.49121613 232.5625 41.25 C232.59690186 41.91829834 232.63130371 42.58659668 232.66674805 43.27514648 C233.84046954 64.48766037 236.22052673 87.78553321 252.1796875 103.6015625 C258.8645093 108.22614414 264.9066127 109.7610336 272.9375 109.75 C281.62811529 109.95431736 290.09064387 110.84262873 298.6875 112.125 C299.80044434 112.28677734 300.91338867 112.44855469 302.06005859 112.61523438 C309.05713355 113.69251355 315.77827257 115.23542203 322.5625 117.25 C323.80902344 117.61222656 325.05554688 117.97445312 326.33984375 118.34765625 C327.38269531 118.66605469 328.42554688 118.98445313 329.5 119.3125 C330.56089844 119.63347656 331.62179687 119.95445312 332.71484375 120.28515625 C335.14384447 121.10815101 337.31315347 122.03047477 339.5625 123.25 C339.645 121.97125 339.7275 120.6925 339.8125 119.375 C339.953125 117.1953125 339.953125 117.1953125 340.5625 115.25 C342.609375 113.9921875 342.609375 113.9921875 344.5625 113.25 C344.77003906 113.806875 344.97757812 114.36375 345.19140625 114.9375 C348.23574112 122.47827925 352.16180623 128.54965312 359.5625 132.25 C360.2225 129.28 360.8825 126.31 361.5625 123.25 C362.8825 122.92 364.2025 122.59 365.5625 122.25 C365.99820312 123.11882812 366.43390625 123.98765625 366.8828125 124.8828125 C370.13764625 131.18112715 373.09928522 136.58628007 378.5625 141.25 C379.5525 138.61 380.5425 135.97 381.5625 133.25 C385.5625 134.25 385.5625 134.25 386.94921875 136.47265625 C387.37847656 137.40980469 387.80773437 138.34695313 388.25 139.3125 C391.35624277 145.20974802 394.50420634 150.12672714 400.5625 153.25 C404.30534456 153.70819325 404.30534456 153.70819325 408.25 153.6875 C415.00649251 153.80201682 415.00649251 153.80201682 417.61328125 155.90234375 C419.16307279 158.27924776 420.35544283 160.68266788 421.5625 163.25 C422.76841427 165.2020573 423.9981605 167.13957129 425.25 169.0625 C426.09111328 170.40248047 426.09111328 170.40248047 426.94921875 171.76953125 C428.50030089 174.24537245 428.50030089 174.24537245 430.265625 176.3671875 C431.5625 178.25 431.5625 178.25 431.625 181.5625 C432.92812358 186.68811941 435.66679479 187.99902018 440.01171875 190.74609375 C440.85347656 191.24238281 441.69523438 191.73867188 442.5625 192.25 C443.5525 192.848125 444.5425 193.44625 445.5625 194.0625 C449.785032 195.73391892 454.09530059 196.49958113 458.5625 197.25 C458.8925 198.9 459.2225 200.55 459.5625 202.25 C458.67046875 202.85328125 457.7784375 203.4565625 456.859375 204.078125 C455.67692934 204.88519109 454.49464624 205.69249539 453.3125 206.5 C452.43271484 207.09361328 452.43271484 207.09361328 451.53515625 207.69921875 C448.21754285 209.97308861 445.31257523 212.28209703 442.5625 215.25 C438.85292343 213.71704712 436.668065 211.4665048 433.9375 208.5625 C426.28265903 200.80752303 418.10258098 195.90152161 408.4050293 191.1640625 C395.2842663 184.72503905 395.2842663 184.72503905 391.5625 179.375 C390.5625 176.25 390.5625 176.25 390.87109375 172.484375 C390.72102982 170.28273311 390.72102982 170.28273311 389.5625 168.25 C385.25670282 165.23061606 380.46669581 163.35560742 375.625 161.375 C374.20800298 160.77025231 372.79191275 160.16337574 371.37670898 159.55444336 C367.79644962 158.02616401 364.20007605 156.54157759 360.59375 155.07598877 C358.70458834 154.30777889 356.81893962 153.53094556 354.93359375 152.75341797 C325.26706775 140.58859539 286.40565482 125.22878637 254.5625 138.25 C252.99822266 138.88615234 252.99822266 138.88615234 251.40234375 139.53515625 C237.29725208 145.93683502 227.2725089 156.98383423 221.60546875 171.2578125 C215.28185095 189.39972725 217.79061838 208.16796168 225.625 225.4375 C234.71787801 242.59570263 251.02231373 254.10969186 269.109375 260.50390625 C282.59088991 264.56334018 295.77246474 265.53214105 309.74908447 265.71276855 C362.53296409 266.44376423 421.47021602 272.65050901 464.5625 306.25 C465.51382813 306.98476563 466.46515625 307.71953125 467.4453125 308.4765625 C473.12041453 312.97643904 478.12467865 317.52501834 482.5625 323.25 C483.34367188 324.24515625 484.12484375 325.2403125 484.9296875 326.265625 C497.98698977 343.41742079 504.79930555 361.5870197 504.625 383.1875 C504.62048828 384.25291016 504.61597656 385.31832031 504.61132812 386.41601562 C504.59961787 389.02740291 504.58321724 391.63867124 504.5625 394.25 C503.5725 394.58 502.5825 394.91 501.5625 395.25 C499.5625 394.25 499.5625 394.25 498.84814453 392.41162109 C498.52499268 391.22947021 498.52499268 391.22947021 498.1953125 390.0234375 C497.82599609 388.72212891 497.82599609 388.72212891 497.44921875 387.39453125 C496.94794836 385.57196351 496.44791451 383.74905515 495.94921875 381.92578125 C494.40775172 376.50269259 492.58107705 372.01961309 489.5625 367.25 C486.58029843 370.5046603 486.58029843 370.5046603 483.64013672 373.79711914 C481.60684336 376.09734111 479.64144379 378.18958517 477.19921875 380.05859375 C474.720069 382.06598297 473.64427461 383.21836005 472.5625 386.25 C472.7378312 391.15574343 474.0134108 395.86564458 475.24609375 400.59375 C478.67920099 414.3867632 478.8303282 428.1342625 478.6875 442.25 C478.67743498 444.00780731 478.66831545 445.76562031 478.66015625 447.5234375 C478.63845647 451.76576925 478.60412768 456.00781894 478.5625 460.25 C476.9125 460.58 475.2625 460.91 473.5625 461.25 C472.17567588 458.47635177 472.40081405 455.82700579 472.32373047 452.77832031 C471.16889447 410.24058633 456.35736238 364.90349187 428.5625 332.25 C428.14178223 331.74178711 427.72106445 331.23357422 427.28759766 330.70996094 C404.31642527 303.10311791 366.12265029 292.51599358 331.5625 289.25 C320.5928633 288.39528987 309.59995509 287.83490068 298.61132812 287.2890625 C263.88890958 285.53915909 236.31589971 278.49021203 212.11621094 252.05810547 C205.36350174 244.19975155 201.20800885 234.8583179 197.5625 225.25 C197.211875 224.43015625 196.86125 223.6103125 196.5 222.765625 C189.05598216 202.79084379 193.22615445 176.19663214 201.5625 157.25 C209.37879603 141.83201723 222.95493559 127.0537822 238.5625 119.25 C237.96481292 114.02637864 236.24478761 109.86437085 234.125 105.125 C230.52137506 96.8226615 227.34964948 88.39987452 224.3125 79.875 C223.9007251 78.72370605 223.4889502 77.57241211 223.06469727 76.38623047 C222.66694092 75.26104004 222.26918457 74.13584961 221.859375 72.9765625 C221.46339111 71.86982178 221.06740723 70.76308105 220.65942383 69.62280273 C219.5625 66.25 219.5625 66.25 218.75268555 62.67602539 C217.39215348 56.34303269 217.39215348 56.34303269 213.40380859 51.515625 C210.59603952 50.19680043 207.85796391 49.28777857 204.875 48.4375 C203.8135376 48.08969482 202.7520752 47.74188965 201.65844727 47.38354492 C199.42508325 46.65834575 197.1840954 45.95625609 194.93652344 45.27636719 C191.67804506 44.28514844 188.45288003 43.22366776 185.2265625 42.1328125 C162.40106584 34.48317692 139.14096221 29.01540705 115.5625 24.25 C114.44858887 24.02425293 113.33467773 23.79850586 112.18701172 23.56591797 C85.88879623 18.30317686 59.51146721 15.2896588 32.8125 13.0625 C31.79805817 12.97773407 30.78361633 12.89296814 29.73843384 12.80563354 C23.01575078 12.24945627 16.29113639 11.7288857 9.5625 11.25 C8.79876068 11.19544647 8.03502136 11.14089294 7.24813843 11.08468628 C-8.76650786 9.98680953 -24.82849069 9.93015271 -40.87365723 9.71777344 C-44.66906495 9.66673721 -48.4644114 9.61148843 -52.25976562 9.55664062 C-59.65229128 9.45040662 -67.04486932 9.34868669 -74.4375 9.25 C-74.7675 7.6 -75.0975 5.95 -75.4375 4.25 C-73.128464 3.095482 -71.44956271 2.97299431 -68.87890625 2.75 C-67.93337891 2.6675 -66.98785156 2.585 -66.01367188 2.5 C-65.01916016 2.4175 -64.02464844 2.335 -63 2.25 C-62.07123047 2.1675 -61.14246094 2.085 -60.18554688 2 C-40.13402604 0.29007684 -20.11231913 0.00562787 0 0 Z " fill="#FBFCFE" transform="translate(107.4375,188.75)"/>
<path d="M0 0 C0.33 0 0.66 0 1 0 C1.06469482 0.75804932 1.12938965 1.51609863 1.19604492 2.29711914 C4.51521129 40.08433243 13.10352069 77.40049067 31.00878906 111.12353516 C32.0020495 113.00387992 32.96794687 114.89633811 33.9296875 116.79296875 C45.76635411 139.89043187 62.1903337 160.24714266 80 179 C80.78503906 179.82757812 81.57007813 180.65515625 82.37890625 181.5078125 C87.04399581 186.29808335 91.98336528 190.58999103 97.20703125 194.76171875 C98.99687348 196.19609581 100.76735706 197.65517734 102.51171875 199.14453125 C136.84812535 228.32784774 180.86244119 247.14438464 225 255 C226.30928467 255.23323975 226.30928467 255.23323975 227.64501953 255.47119141 C242.08053991 257.98653288 256.21011063 259.21192131 270.875 259.1875 C271.96847748 259.18609512 271.96847748 259.18609512 273.08404541 259.18466187 C285.15291498 259.15117663 297.04519125 258.755114 309 257 C310.00063477 256.8546582 311.00126953 256.70931641 312.03222656 256.55957031 C343.10597313 251.8462954 373.2795747 241.8112666 401 227 C401.65419922 226.65356445 402.30839844 226.30712891 402.98242188 225.95019531 C420.26496761 216.73564776 435.75470657 205.23525377 451 193 C450.45477823 188.84708248 449.54336 185.59511959 447.62890625 181.875 C447.14220459 180.92802246 446.65550293 179.98104492 446.15405273 179.00537109 C445.62884033 178.01359863 445.10362793 177.02182617 444.5625 176 C444.02117432 174.97342285 443.47984863 173.9468457 442.92211914 172.88916016 C438.54352579 164.73317096 433.76627734 157.22969712 428 150 C427.56864746 149.44666992 427.13729492 148.89333984 426.69287109 148.32324219 C411.61932746 129.09470569 393.67562608 119.71156984 371 112 C369.89140625 111.60941406 368.7828125 111.21882813 367.640625 110.81640625 C342.92963002 102.59007761 316.43779745 102.07426956 290.6640625 100.4765625 C258.26557497 98.45242686 231.92320133 91.95969044 209.61425781 66.91699219 C199.2823441 54.647454 191.25637057 39.15614027 190 23 C190.9375 20.56640625 190.9375 20.56640625 192 19 C192.226875 20.051875 192.45375 21.10375 192.6875 22.1875 C196.63842379 37.74426244 203.88847256 50.51678414 215 62 C215.5671875 62.66386719 216.134375 63.32773437 216.71875 64.01171875 C232.23988469 81.40244467 257.12073041 88.64931343 279.59207153 90.17611694 C282.4346073 90.33339807 285.27753653 90.47571833 288.12109375 90.61328125 C388.21293743 95.76906493 388.21293743 95.76906493 422.625 132.75 C428.03091061 138.75014377 432.71650637 145.1515096 437 152 C437.69029297 153.09948975 437.69029297 153.09948975 438.39453125 154.22119141 C453.31682628 178.33211599 462.35979492 204.43023012 467.375 232.25 C467.54306152 233.17828613 467.71112305 234.10657227 467.88427734 235.06298828 C468.89137911 241.08926752 469.19274141 246.89487477 469 253 C468.67 253 468.34 253 468 253 C467.91024902 252.41323486 467.82049805 251.82646973 467.72802734 251.22192383 C465.71480088 238.30894389 463.081683 225.87420645 459.26953125 213.37109375 C458.2306897 209.9365113 457.4794271 206.56393401 457 203 C456.40316406 203.49886719 455.80632812 203.99773437 455.19140625 204.51171875 C427.41736026 227.49855919 398.10834586 245.84528609 364 258 C363.12617676 258.31807617 362.25235352 258.63615234 361.35205078 258.96386719 C294.27182133 283.09308334 217.89931861 276.44664566 153.91210938 246.55761719 C134.13212164 237.02937358 115.87315543 225.02489836 99 211 C98.43265137 210.53416504 97.86530273 210.06833008 97.28076172 209.58837891 C85.18810809 199.63071341 73.76738228 188.93311982 64.0546875 176.60546875 C62.72005676 174.91307577 61.35149982 173.24670417 59.9453125 171.61328125 C33.80546493 141.11679241 16.47563181 102.75337062 7 64 C6.80422363 63.2147998 6.60844727 62.42959961 6.40673828 61.62060547 C1.48176648 41.52930128 -0.72948825 20.66883373 0 0 Z " fill="#196CB4" transform="translate(111,384)"/>
<path d="M0 0 C1.03930664 0.34901367 1.03930664 0.34901367 2.09960938 0.70507812 C31.73910805 10.66418751 59.04035575 27.05754161 83 47 C83.51498047 47.42474609 84.02996094 47.84949219 84.56054688 48.28710938 C96.69152663 58.32312413 108.18059007 69.00084508 117.9453125 81.39453125 C119.27994324 83.08692423 120.64850018 84.75329583 122.0546875 86.38671875 C152.67065041 122.10534214 171.03626615 167.81532055 178.9375 213.75 C179.14914795 214.96228271 179.3607959 216.17456543 179.57885742 217.42358398 C180.91400077 225.71352256 181.2374249 233.61258572 181 242 C178.39976262 239.39976262 178.47440772 237.77707563 177.95703125 234.15625 C177.77446777 232.94300049 177.5919043 231.72975098 177.40380859 230.47973633 C177.30831726 229.83179108 177.21282593 229.18384583 177.11444092 228.51626587 C171.12983461 188.55295942 156.49712239 151.55464145 134 118 C133.566875 117.35305176 133.13375 116.70610352 132.6875 116.03955078 C119.57360731 96.65045553 103.09469581 77.89667588 84.828125 63.2734375 C83.02615055 61.82488898 81.24248128 60.35305078 79.484375 58.8515625 C26.77226547 14.06243876 -45.91784644 -5.85446772 -114.1875 -0.49609375 C-170.15066188 4.71633666 -221.61474116 26.5184777 -265 62 C-265.83217041 62.66902344 -265.83217041 62.66902344 -266.68115234 63.3515625 C-269.79200342 65.78990048 -269.79200342 65.78990048 -272 69 C-276.62 68.34 -281.24 67.68 -286 67 C-247.71932895 19.14916119 -178.6829976 -7.5782047 -119.625 -14.3125 C-79.1965846 -18.1599879 -38.30247455 -13.34830348 0 0 Z " fill="#3C84FF" transform="translate(475,126)"/>
<path d="M0 0 C1.95008698 0.14043015 3.90020127 0.28048146 5.8503418 0.42016602 C10.47241213 0.7538478 15.09360804 1.09805079 19.71447754 1.44793701 C21.7453138 1.60108118 23.77644077 1.75036125 25.80761719 1.89892578 C32.2380501 2.37260953 38.65048621 2.94642116 45.0625 3.625 C46.11759766 3.73360352 47.17269531 3.84220703 48.25976562 3.95410156 C96.5911266 9.0942775 144.3119885 20.36199355 190.125 36.4375 C191.17171875 36.7981958 192.2184375 37.1588916 193.296875 37.53051758 C194.74513672 38.05101685 194.74513672 38.05101685 196.22265625 38.58203125 C197.06449463 38.88085205 197.90633301 39.17967285 198.77368164 39.48754883 C202.36582986 41.27270281 204.50647984 43.31079486 206.07641602 47.02148438 C206.44271118 48.35663086 206.44271118 48.35663086 206.81640625 49.71875 C207.10813721 50.73606201 207.39986816 51.75337402 207.70043945 52.80151367 C208.00554443 53.89826416 208.31064941 54.99501465 208.625 56.125 C213.27824531 72.07042213 219.1197906 87.606595 225.90625 102.7734375 C227.0625 105.625 227.0625 105.625 226.75 108.0625 C226.4096875 108.8359375 226.4096875 108.8359375 226.0625 109.625 C225.4025 109.625 224.7425 109.625 224.0625 109.625 C218.24715285 96.39742258 213.02269809 83.09174912 208.5 69.375 C208.28281311 68.71707458 208.06562622 68.05914917 207.84185791 67.38128662 C204.22575343 56.3886177 204.22575343 56.3886177 203.56665039 53.30566406 C203.31709595 52.47373535 203.31709595 52.47373535 203.0625 51.625 C202.4025 51.295 201.7425 50.965 201.0625 50.625 C200.4025 50.295 199.7425 49.965 199.0625 49.625 C198.4375 47.5625 198.4375 47.5625 198.0625 45.625 C197.37027344 45.57601562 196.67804688 45.52703125 195.96484375 45.4765625 C190.43287776 45.05382992 184.96262858 44.49162483 179.47265625 43.6875 C169.54143906 42.31672952 159.56356205 41.63747935 149.5625 41 C148.03396393 40.90194565 148.03396393 40.90194565 146.47454834 40.8019104 C129.04557136 39.71660979 111.64835973 39.32487802 94.1875 39.3125 C93.06674072 39.30909607 91.94598145 39.30569214 90.79125977 39.30218506 C77.4473084 39.27888392 64.23836789 39.73598557 50.94412231 40.92936707 C44.29503657 41.51830212 37.737283 41.74105682 31.0625 41.625 C35.39936479 34.63541958 39.94283267 27.87836879 44.77294922 21.22216797 C47.10191857 18.03866116 47.10191857 18.03866116 49.0625 14.625 C3.65621959 9.81109342 -41.31395646 8.12990223 -86.9375 7.625 C-87.2675 5.975 -87.5975 4.325 -87.9375 2.625 C-85.628464 1.470482 -83.94956271 1.34799431 -81.37890625 1.125 C-80.44554443 1.0429834 -79.51218262 0.9609668 -78.55053711 0.87646484 C-77.54385986 0.79348145 -76.53718262 0.71049805 -75.5 0.625 C-73.94261108 0.49472412 -73.94261108 0.49472412 -72.35375977 0.36181641 C-48.1283547 -1.61478381 -24.24694776 -1.80625874 0 0 Z " fill="#1F5CB5" transform="translate(119.9375,199.375)"/>
<path d="M0 0 C0.67184618 2.10251861 1.33730968 4.20707763 2 6.3125 C2.37125 7.48425781 2.7425 8.65601563 3.125 9.86328125 C4 13 4 13 4 16 C-4.76494492 16.28032873 -13.11403611 14.94512717 -21.7578125 13.59765625 C-45.46438316 10.10378394 -69.24628585 9.67136129 -93.15771484 9.73925781 C-97.16928397 9.75057423 -101.18058556 9.74389001 -105.19214535 9.73241043 C-137.88654184 9.65240888 -170.01777592 11.42765531 -202.4375 15.75 C-203.81166811 15.92998426 -205.18589601 16.10951254 -206.56018066 16.28860474 C-237.71301377 20.35173999 -268.40579372 25.42720359 -299.10839844 32.10522461 C-299.99707108 32.29701797 -300.88574371 32.48881134 -301.80134583 32.68641663 C-303.46728559 33.04671687 -305.13230457 33.41131193 -306.79618835 33.7809906 C-310.6003768 34.60243848 -314.0804225 35.21962519 -318 35 C-318 33.35 -318 31.7 -318 30 C-229.55811339 -1.50717157 -136.68169449 -11.67558034 0 0 Z " fill="#FAFCFD" transform="translate(318,245)"/>
<path d="M0 0 C0.84755859 0.00451172 1.69511719 0.00902344 2.56835938 0.01367188 C4.6081053 0.02519586 6.64781363 0.04311544 8.6875 0.0625 C9.55522029 2.14022471 10.40623619 4.22493177 11.25 6.3125 C11.72566406 7.47265625 12.20132812 8.6328125 12.69140625 9.828125 C13.64520524 12.92516644 13.89733356 14.13571701 12.6875 17.0625 C6.87954227 17.88202778 1.10251079 18.31258333 -4.75170898 18.65771484 C-35.81294567 20.5204263 -66.34127514 25.28157609 -96.61865234 32.43017578 C-99.24962942 33.04774245 -101.88390092 33.64873726 -104.51953125 34.24609375 C-138.26391131 41.96520851 -171.82165419 52.86668606 -203.50830078 66.83105469 C-206.44325299 68.1199193 -209.39022158 69.37791491 -212.33984375 70.6328125 C-221.33783633 74.49293998 -230.24432664 78.46777458 -238.97265625 82.90625 C-239.61252472 83.23099304 -240.25239319 83.55573608 -240.91165161 83.89031982 C-244.04390112 85.48437252 -247.16595475 87.09519596 -250.27636719 88.73144531 C-251.39817383 89.30991211 -252.51998047 89.88837891 -253.67578125 90.484375 C-254.66876221 91.00612305 -255.66174316 91.52787109 -256.68481445 92.06542969 C-259.4860114 93.12833857 -260.57766912 93.1598362 -263.3125 92.0625 C-263.20703125 89.84765625 -263.20703125 89.84765625 -262.3125 87.0625 C-260.22004119 85.29994711 -258.30712773 83.9229449 -256 82.5 C-254.99791504 81.86046387 -254.99791504 81.86046387 -253.97558594 81.20800781 C-251.7652807 79.8082489 -249.53987108 78.43491094 -247.3125 77.0625 C-246.20672607 76.36761475 -246.20672607 76.36761475 -245.07861328 75.65869141 C-225.01760146 63.06264492 -203.95437864 52.04369293 -181.99511719 43.14990234 C-179.14928841 41.99634197 -176.31314881 40.82061999 -173.4765625 39.64453125 C-142.83688371 27.05328543 -111.59393822 17.37282859 -79.3125 10.0625 C-78.1565332 9.79904785 -77.00056641 9.5355957 -75.80957031 9.26416016 C-58.39288165 5.3407769 -41.09988609 2.59538757 -23.3125 1.0625 C-21.67631714 0.91784302 -21.67631714 0.91784302 -20.00708008 0.77026367 C-13.32081826 0.21213599 -6.70802454 -0.07049662 0 0 Z " fill="#FBFCFD" transform="translate(315.3125,263.9375)"/>
<path d="M0 0 C3.15932422 0.00463948 6.31826401 -0.00235714 9.47753906 -0.02050781 C41.4412767 -0.20211155 75.16267367 0.11552622 106.23876953 8.31567383 C106.23876953 8.97567383 106.23876953 9.63567383 106.23876953 10.31567383 C95.67661124 11.10471279 85.17602613 11.47551876 74.5847168 11.44604492 C72.30592172 11.44068477 70.02732435 11.44603339 67.74853516 11.45239258 C60.67144969 11.45539348 53.65726339 11.31767713 46.59423828 10.81958008 C32.92327598 9.8878906 19.18541185 10.11579637 5.48876953 10.12817383 C4.75398376 10.12858799 4.019198 10.12900215 3.262146 10.12942886 C-34.15606703 10.15585451 -70.66547222 12.26868682 -107.76123047 17.31567383 C-108.7058313 17.44413696 -109.65043213 17.5726001 -110.62365723 17.70495605 C-142.91335395 22.1232314 -175.44324851 26.87757522 -207.09277344 34.79125977 C-209.72333193 35.30822588 -212.08836165 35.41410637 -214.76123047 35.31567383 C-214.76123047 33.66567383 -214.76123047 32.01567383 -214.76123047 30.31567383 C-179.6155125 18.20937504 -144.72482889 12.05705268 -107.93081665 7.36524963 C-101.10515927 6.49436347 -94.28709281 5.57830222 -87.47241211 4.62548828 C-75.55044279 3.05143189 -63.65068586 1.90007135 -51.64404297 1.22583008 C-50.53057243 1.1622679 -50.53057243 1.1622679 -49.39460754 1.09742165 C-32.93183341 0.17719458 -16.48542672 -0.02617592 0 0 Z " fill="#1E5FB4" transform="translate(214.76123046875,253.684326171875)"/>
<path d="M0 0 C0.33 0 0.66 0 1 0 C1.226875 1.051875 1.45375 2.10375 1.6875 3.1875 C5.63842379 18.74426244 12.88847256 31.51678414 24 43 C24.5671875 43.66386719 25.134375 44.32773437 25.71875 45.01171875 C41.23988469 62.40244467 66.12073041 69.64931343 88.59207153 71.17611694 C91.4346073 71.33339807 94.27753653 71.47571833 97.12109375 71.61328125 C197.21293743 76.76906493 197.21293743 76.76906493 231.625 113.75 C237.03091061 119.75014377 241.71650637 126.1515096 246 133 C246.46019531 133.73299316 246.92039062 134.46598633 247.39453125 135.22119141 C262.31682628 159.33211599 271.35979492 185.43023012 276.375 213.25 C276.54306152 214.17828613 276.71112305 215.10657227 276.88427734 216.06298828 C277.89137911 222.08926752 278.19274141 227.89487477 278 234 C277.67 234 277.34 234 277 234 C276.91024902 233.41323486 276.82049805 232.82646973 276.72802734 232.22192383 C274.47714817 217.78462221 271.36148383 203.94158801 267 190 C266.68095703 188.9486084 266.68095703 188.9486084 266.35546875 187.87597656 C263.39627596 178.13450481 259.54712825 169.07774722 255 160 C254.69191406 159.37593262 254.38382813 158.75186523 254.06640625 158.10888672 C249.24249129 148.4035101 243.6385706 139.56510588 237 131 C236.56284668 130.43506836 236.12569336 129.87013672 235.67529297 129.28808594 C220.6058204 110.080707 202.65648248 100.70505944 180 93 C178.89140625 92.60941406 177.7828125 92.21882813 176.640625 91.81640625 C151.92963002 83.59007761 125.43779745 83.07426956 99.6640625 81.4765625 C67.26557497 79.45242686 40.92320133 72.95969044 18.61425781 47.91699219 C8.1030637 35.43455175 0.76119724 20.28612728 -1 4 C-0.56640625 1.56640625 -0.56640625 1.56640625 0 0 Z " fill="#1E61B4" transform="translate(302,403)"/>
<path d="M0 0 C1.66670026 3.52948291 2.13583456 5.28272326 1 9 C0.08114014 9.07516846 -0.83771973 9.15033691 -1.78442383 9.2277832 C-36.67027145 12.04184557 -36.67027145 12.04184557 -71.375 16.5 C-72.06916016 16.60634766 -72.76332031 16.71269531 -73.47851562 16.82226562 C-78.77991577 17.68811035 -83.98843809 18.8882594 -89.21630859 20.11669922 C-92.71576848 20.9336463 -96.21942022 21.72707075 -99.72622681 22.5116272 C-103.01867761 23.24924406 -106.30915583 23.99547428 -109.59960938 24.74194336 C-111.27183042 25.11974504 -112.94467815 25.49478448 -114.61816406 25.86694336 C-125.514477 28.29322618 -136.14684761 31.14424654 -146.75512695 34.62646484 C-150.8300828 35.96355017 -154.93427595 37.15039362 -159.0625 38.3125 C-175.10140413 42.93722522 -190.96956576 48.49227298 -206.33984375 55.00390625 C-209 56 -209 56 -212 56 C-212 56.66 -212 57.32 -212 58 C-212.61480225 58.24943359 -213.22960449 58.49886719 -213.86303711 58.75585938 C-225.03637359 63.31816006 -236.104495 67.99841738 -246.93359375 73.328125 C-247.67828415 73.69421875 -248.42297455 74.0603125 -249.19023132 74.4375 C-252.8802931 76.25729359 -256.55989786 78.09582156 -260.23022461 79.95507812 C-261.58827833 80.63171231 -262.94642803 81.30815391 -264.3046875 81.984375 C-264.92343246 82.30464661 -265.54217743 82.62491821 -266.17967224 82.95489502 C-268.78292343 84.24116089 -270.49220904 85.06540897 -273.41845703 84.68847656 C-273.94036621 84.4612793 -274.46227539 84.23408203 -275 84 C-275 82.68 -275 81.36 -275 80 C-272.59953493 77.94469984 -270.32519323 76.26962362 -267.6875 74.5625 C-266.89279297 74.04244385 -266.09808594 73.5223877 -265.27929688 72.98657227 C-237.3702952 55.30048367 -205.04221268 43.95189176 -174 33 C-173.02160156 32.65453125 -172.04320312 32.3090625 -171.03515625 31.953125 C-156.87079723 26.99458325 -142.49572697 22.87097928 -128 19 C-127.02724121 18.73832031 -126.05448242 18.47664063 -125.05224609 18.20703125 C-107.864915 13.62141523 -90.49431101 10.16540023 -73 7 C-72.08379883 6.83371094 -71.16759766 6.66742188 -70.22363281 6.49609375 C-47.16517233 2.38941246 -23.43713696 -0.1531839 0 0 Z " fill="#1E63B4" transform="translate(327,281)"/>
<path d="M0 0 C7.73835059 0.16213951 15.33242143 1.65358609 22.9375 2.98046875 C24.54461996 3.2553835 26.1517984 3.52995662 27.7590332 3.80419922 C61.64284339 9.6208444 94.39332738 17.07509107 126.9375 28.29296875 C123.02918434 29.70236135 119.38635404 29.00000633 115.375 28.48046875 C90.59201505 25.6745735 65.79509829 25.09412636 40.875 25.04296875 C39.15875427 25.03520416 39.15875427 25.03520416 37.40783691 25.02728271 C23.79998003 24.97871286 10.335763 25.37020213 -3.22193909 26.59417725 C-9.85772776 27.18647015 -16.40062504 27.40915799 -23.0625 27.29296875 C-19.1375756 20.96612729 -15.07469285 14.7900766 -10.75 8.73046875 C-10.31768066 8.12315918 -9.88536133 7.51584961 -9.43994141 6.89013672 C-4.49172897 0.00625991 -4.49172897 0.00625991 0 0 Z " fill="#2783FE" transform="translate(174.0625,213.70703125)"/>
<path d="M0 0 C28.5065943 4.74201473 57.21238048 25.03264715 74 48 C83.00533196 60.65894421 88.45284958 74.93746269 92 90 C93.32 90 94.64 90 96 90 C96 93.3 96 96.6 96 100 C94.515 100.495 94.515 100.495 93 101 C91 100 91 100 90.28564453 98.16162109 C90.07020996 97.37352051 89.85477539 96.58541992 89.6328125 95.7734375 C89.38660156 94.90589844 89.14039063 94.03835938 88.88671875 93.14453125 C88.38544836 91.32196351 87.88541451 89.49905515 87.38671875 87.67578125 C85.84525172 82.25269259 84.01857705 77.76961309 81 73 C75.26582134 79.27644505 69.56331247 85.570874 64 92 C62 91 62 91 61.16552734 88.953125 C60.75488037 87.61507812 60.75488037 87.61507812 60.3359375 86.25 C60.02277588 85.25726074 59.70961426 84.26452148 59.38696289 83.24169922 C59.05301514 82.17193848 58.71906738 81.10217773 58.375 80 C48.90979665 50.76750767 32.97596517 24.32778423 7.796875 6.04296875 C5.13500346 4.09861286 2.55857179 2.07767235 0 0 Z " fill="#215CB5" transform="translate(516,483)"/>
<path d="M0 0 C0 2.97 0 5.94 0 9 C-1.21429688 8.47792969 -2.42859375 7.95585937 -3.6796875 7.41796875 C-7.35196827 5.83987069 -11.02709348 4.26855746 -14.703125 2.69921875 C-18.88966783 0.91031607 -23.06499087 -0.90196305 -27.234375 -2.73046875 C-61.65130605 -17.71242358 -102.10959788 -34.16404049 -139.30859375 -19.71484375 C-153.25350243 -13.33749061 -163.46993099 -2.14211785 -169 12.046875 C-170.33985456 16.003633 -171.24695464 19.89247987 -172 24 C-172.33 24 -172.66 24 -173 24 C-174.26909135 10.43482353 -169.29672277 -2.38602848 -161 -13 C-120.60633971 -60.61683218 -43.84650079 -22.45014791 0 0 Z " fill="#1F58B4" transform="translate(498,357)"/>
<path d="M0 0 C-0.76772347 3.48704307 -1.82174729 6.15199539 -4 9 C-6.48999023 9.81445312 -6.48999023 9.81445312 -9.55859375 10.15625 C-10.72849854 10.29853027 -11.89840332 10.44081055 -13.10375977 10.58740234 C-14.38951904 10.72355957 -15.67527832 10.8597168 -17 11 C-18.35177071 11.15984186 -19.70324856 11.32217713 -21.05444336 11.48681641 C-24.02758721 11.84731929 -27.00153827 12.19964701 -29.97631836 12.54638672 C-62.63351243 16.38140699 -95.13261182 21.69884925 -127.21850586 28.91748047 C-128.44835205 29.19221191 -129.67819824 29.46694336 -130.9453125 29.75 C-132.53110107 30.11351562 -132.53110107 30.11351562 -134.14892578 30.484375 C-136.84078263 30.97120508 -139.27260543 31.1004334 -142 31 C-142 29.35 -142 27.7 -142 26 C-104.24294807 12.99420076 -66.5228369 6.93639765 -27 2 C-26.17327789 1.89655273 -25.34655579 1.79310547 -24.49478149 1.68652344 C-22.16759072 1.39742633 -19.83984427 1.11349158 -17.51171875 0.83203125 C-16.20162842 0.67323486 -14.89153809 0.51443848 -13.54174805 0.35083008 C-8.9894257 -0.10010307 -4.56945717 -0.14506213 0 0 Z " fill="#000001" transform="translate(142,258)"/>
<path d="M0 0 C1.93616845 0.13900162 3.87236673 0.27758814 5.80859375 0.41577148 C11.22756964 0.80585341 16.64520074 1.21235925 22.0625 1.625 C22.76223938 1.67783142 23.46197876 1.73066284 24.18292236 1.78509521 C46.36929319 3.46336249 46.36929319 3.46336249 57.0625 5.625 C56.45706452 6.98722983 55.77135894 8.31361096 55.0625 9.625 C54.62437988 10.50945801 54.18625977 11.39391602 53.73486328 12.30517578 C50.56132979 15.06005567 49.81539644 14.92584501 45.75341797 14.74951172 C43.5178691 14.54493577 41.28486996 14.31123431 39.0546875 14.0546875 C37.8600589 13.93900421 36.6654303 13.82332092 35.43460083 13.70413208 C31.5992567 13.32765907 27.76885377 12.91495501 23.9375 12.5 C21.41041189 12.24227263 18.88306835 11.98703678 16.35546875 11.734375 C14.50965714 11.54981499 14.50965714 11.54981499 12.6265564 11.36152649 C11.40658966 11.23964462 10.18662292 11.11776276 8.9296875 10.9921875 C7.70271149 10.86817062 6.47573547 10.74415375 5.21157837 10.61637878 C-14.45622348 8.64424129 -34.09062327 8.35770861 -53.84143066 8.09277344 C-57.58312854 8.04177365 -61.3247634 7.9865051 -65.06640625 7.93164062 C-72.35671689 7.82534802 -79.64708135 7.72363899 -86.9375 7.625 C-87.2675 5.975 -87.5975 4.325 -87.9375 2.625 C-85.628464 1.470482 -83.94956271 1.34799431 -81.37890625 1.125 C-80.44554443 1.0429834 -79.51218262 0.9609668 -78.55053711 0.87646484 C-77.54385986 0.79348145 -76.53718262 0.71049805 -75.5 0.625 C-73.94261108 0.49472412 -73.94261108 0.49472412 -72.35375977 0.36181641 C-48.128059 -1.61480793 -24.2472528 -1.80488309 0 0 Z " fill="#000000" transform="translate(119.9375,199.375)"/>
<path d="M0 0 C6.6976668 1.32734347 12.83713377 3.25961428 19.1875 5.75 C20.11095215 6.1099707 21.0344043 6.46994141 21.98583984 6.84082031 C23.82681288 7.56205273 25.6663793 8.28688777 27.50439453 9.015625 C29.59937869 9.84197758 31.7008939 10.64444695 33.80859375 11.4375 C52.93815785 19.00821088 69.73056717 32.10217272 84.75390625 45.94140625 C86.9002972 47.90862021 89.09545272 49.80073909 91.3125 51.6875 C93.71203329 53.75109863 95.67566041 55.77629353 97.5625 58.3125 C100.52951029 61.58381904 102.77867435 61.98375494 107 63 C108.9375 64.4375 108.9375 64.4375 110 66 C110 66.99 110 67.98 110 69 C106.03585489 70.3213817 102.0711201 71.05263551 98 70 C90.25029077 65.03683745 85.78136821 58.2237073 82 50 C81.01 50 80.02 50 79 50 C78.34 52.64 77.68 55.28 77 58 C70.74581007 53.094753 65.80399164 48.08573374 64 40.125 C63.505 38.578125 63.505 38.578125 63 37 C61.35376205 36.28437241 59.68181443 35.62747307 58 35 C55.95583177 33.7241474 53.93757809 32.40641638 51.9375 31.0625 C35.18384185 20.10878913 17.41166398 11.77608673 -1 4 C-0.67 2.68 -0.34 1.36 0 0 Z " fill="#1E56B5" transform="translate(410,273)"/>
<path d="M0 0 C6.62923175 1.32450846 12.76141915 3.18916959 19.0625 5.625 C19.9800708 5.97836426 20.8976416 6.33172852 21.84301758 6.69580078 C30.18059785 9.96814323 38.11192922 13.77233136 46 18 C46.71220703 18.37350586 47.42441406 18.74701172 48.15820312 19.13183594 C67.76798067 29.43426062 85.15791922 42.35141757 101.3125 57.48828125 C102.89512989 58.9673961 104.49326963 60.43070418 106.125 61.85546875 C107.8125 63.375 107.8125 63.375 110 66 C109.875 68.875 109.875 68.875 109 71 C105.31850695 71.72422814 103.54342619 72.00874994 100 71 C96.35202705 67.80029491 93.34802838 64.18513737 90.25195312 60.4609375 C87.50303267 57.25314888 84.27750184 54.64460494 81 52 C79.98421875 51.16984375 78.9684375 50.3396875 77.921875 49.484375 C54.18377802 30.31234279 27.11712277 15.70192393 -1 4 C-0.67 2.68 -0.34 1.36 0 0 Z " fill="#F7F9FE" transform="translate(410,264)"/>
<path d="M0 0 C12.49920815 3.7705002 23.02940258 11.8338568 33 20 C33.80050781 20.63421875 34.60101562 21.2684375 35.42578125 21.921875 C42.9144384 28.14690439 51.09209949 36.97833253 55 46 C49.66661098 52.7161195 44.21830287 59.08668201 38 65 C36.62280109 62.33597152 35.45065129 59.67740061 34.40625 56.8671875 C26.55486343 36.19409806 16.43639708 18.89554466 1.3984375 2.609375 C0 1 0 1 0 0 Z " fill="#287DFD" transform="translate(538,500)"/>
<path d="M0 0 C0.33 0 0.66 0 1 0 C1.76121144 23.40020343 -1.5215065 46.28140923 -7 69 C-7.20963379 69.87398438 -7.41926758 70.74796875 -7.63525391 71.6484375 C-15.13867043 102.05489216 -28.88300409 133.06072684 -48 158 C-48.66 158 -49.32 158 -50 158 C-51.756258 155.03631463 -52.76117334 152.45536445 -53 149 C-51.56379051 146.09856668 -49.68198603 143.87385552 -47.63671875 141.36328125 C-32.14280057 122.21474907 -21.63564687 97.22755885 -14 74 C-13.74025391 73.22446777 -13.48050781 72.44893555 -13.21289062 71.64990234 C-5.46719191 48.26458602 -2.11640209 24.4559091 0 0 Z " fill="#1B54B6" transform="translate(656,383)"/>
<path d="M0 0 C0.825 0.825 1.65 1.65 2.5 2.5 C6.2558386 5.74437277 10.31579995 7.79644144 14.75 9.9375 C28.63576557 16.68478622 39.18920638 25.08697666 50 36 C52.97892949 34.66305125 54.999098 33.16079577 57.3125 30.875 C60.19894603 28.3009399 60.8421233 28.01503588 64.9375 27.625 C65.948125 27.74875 66.95875 27.8725 68 28 C68.495 30.475 68.495 30.475 69 33 C68.35933594 33.43570313 67.71867188 33.87140625 67.05859375 34.3203125 C61.76701859 37.96369212 56.795958 41.72534178 52 46 C48.29042343 44.46704712 46.105565 42.2165048 43.375 39.3125 C35.72211642 31.55950603 27.54288139 26.64491293 17.8425293 21.91625977 C2.24014826 14.27241514 2.24014826 14.27241514 0 8 C-0.21356447 5.27959549 -0.13923135 2.73821657 0 0 Z " fill="#1E55B4" transform="translate(498,367)"/>
<path d="M0 0 C-0.33 3.3 -0.66 6.6 -1 10 C-2.49402344 10.6084375 -3.98804688 11.216875 -5.52734375 11.84375 C-15.79900505 16.08420809 -25.96286738 20.42087856 -35.93359375 25.328125 C-36.67828415 25.69421875 -37.42297455 26.0603125 -38.19023132 26.4375 C-41.8802931 28.25729359 -45.55989786 30.09582156 -49.23022461 31.95507812 C-50.58827833 32.63171231 -51.94642803 33.30815391 -53.3046875 33.984375 C-53.92343246 34.30464661 -54.54217743 34.62491821 -55.17967224 34.95489502 C-57.78292343 36.24116089 -59.49220904 37.06540897 -62.41845703 36.68847656 C-63.2013208 36.34768066 -63.2013208 36.34768066 -64 36 C-64 34.68 -64 33.36 -64 32 C-61.59974678 29.94488123 -59.32473391 28.26984055 -56.6875 26.5625 C-55.89931885 26.04534424 -55.1111377 25.52818848 -54.29907227 24.99536133 C-14.92641208 0 -14.92641208 0 0 0 Z " fill="#010101" transform="translate(116,329)"/>
<path d="M0 0 C3 1 3 1 3.93554688 2.59130859 C4.19400391 3.27016113 4.45246094 3.94901367 4.71875 4.6484375 C5.15562134 5.77886475 5.15562134 5.77886475 5.60131836 6.93212891 C5.8978833 7.73827637 6.19444824 8.54442383 6.5 9.375 C6.80752197 10.18759277 7.11504395 11.00018555 7.43188477 11.83740234 C9.65191685 17.79970658 11.56531227 23.79668354 13 30 C14.32 30 15.64 30 17 30 C17 33.3 17 36.6 17 40 C16.01 40.33 15.02 40.66 14 41 C12 40 12 40 11.28564453 38.16162109 C11.07020996 37.37352051 10.85477539 36.58541992 10.6328125 35.7734375 C10.38660156 34.90589844 10.14039063 34.03835938 9.88671875 33.14453125 C9.38544836 31.32196351 8.88541451 29.49905515 8.38671875 27.67578125 C6.84525172 22.25269259 5.01857705 17.76961309 2 13 C-3.73417866 19.27644505 -9.43668753 25.570874 -15 32 C-17 31 -17 31 -17.9140625 28.99609375 C-18.69506486 26.18534348 -19.13205457 23.92223975 -19 21 C-17.42512294 18.58488241 -15.63558153 17.01834673 -13.44140625 15.15234375 C-9.7814429 11.92572006 -6.92172208 8.12159661 -3.8828125 4.3203125 C-2 2 -2 2 0 0 Z " fill="#1C59B4" transform="translate(595,543)"/>
<path d="M0 0 C0.90492188 0.02320313 1.80984375 0.04640625 2.7421875 0.0703125 C3.65226562 0.08835938 4.56234375 0.10640625 5.5 0.125 C6.19867188 0.14820313 6.89734375 0.17140625 7.6171875 0.1953125 C7.6171875 4.39774227 5.23328499 6.22742995 2.5546875 9.1953125 C-1.22202205 13.43510141 -4.20467938 17.45930239 -6.8828125 22.5078125 C-8.48046875 25.203125 -8.48046875 25.203125 -10.3828125 27.1953125 C-14.21079631 28.10152907 -17.53187069 27.88472161 -21.3828125 27.1953125 C-17.47676356 20.85768342 -13.39409734 14.69114809 -9.0703125 8.6328125 C-8.63799316 8.02550293 -8.20567383 7.41819336 -7.76025391 6.79248047 C-3.05790709 0.25064812 -3.05790709 0.25064812 0 0 Z " fill="#3B93FE" transform="translate(172.3828125,213.8046875)"/>
<path d="M0 0 C1.134375 0.020625 2.26875 0.04125 3.4375 0.0625 C2.61958984 1.71958984 2.61958984 1.71958984 1.78515625 3.41015625 C-2.71870291 12.65751652 -6.86586163 21.98613481 -10.625 31.5625 C-11.01872803 32.55902588 -11.41245605 33.55555176 -11.81811523 34.58227539 C-13.89567645 39.67708529 -13.89567645 39.67708529 -14.5625 45.0625 C-16.375 46.125 -16.375 46.125 -18.5625 47.0625 C-19.5525 46.7325 -20.5425 46.4025 -21.5625 46.0625 C-7.48358593 0.13129098 -7.48358593 0.13129098 0 0 Z " fill="#3A9DFE" transform="translate(141.5625,265.9375)"/>
<path d="M0 0 C0.66 0 1.32 0 2 0 C2.39268066 1.07781738 2.78536133 2.15563477 3.18994141 3.26611328 C4.67329339 7.33429585 6.16185613 11.40055648 7.65185547 15.46630859 C8.29125904 17.21319893 8.92932137 18.96058089 9.56591797 20.70849609 C10.49078128 23.24713666 11.41980342 25.78419514 12.3515625 28.3203125 C12.65555969 29.14895813 12.95955688 29.97760376 13.27276611 30.83135986 C15.59984521 37.09941248 18.21328406 43.18976298 21.04443359 49.24560547 C22.03408785 52.0982573 22.11046172 53.24496185 21 56 C20.34 56 19.68 56 19 56 C13.55981916 43.43361062 8.40629929 30.8002852 3.875 17.875 C3.48513916 16.78010254 3.09527832 15.68520508 2.69360352 14.55712891 C2.16077759 13.00904541 2.16077759 13.00904541 1.6171875 11.4296875 C1.30378418 10.52460449 0.99038086 9.61952148 0.66748047 8.68701172 C-0.07300043 5.70612921 -0.11623699 3.05978433 0 0 Z " fill="#2761BA" transform="translate(325,253)"/>
<path d="M0 0 C0.66 0 1.32 0 2 0 C7.37129841 14.59681093 7.37129841 14.59681093 9 22 C10.32 22 11.64 22 13 22 C13 25.3 13 28.6 13 32 C11.515 32.495 11.515 32.495 10 33 C8 32 8 32 7.28564453 30.19335938 C7.07020996 29.41798828 6.85477539 28.64261719 6.6328125 27.84375 C6.38660156 26.98523438 6.14039063 26.12671875 5.88671875 25.2421875 C5.50966797 23.88480469 5.50966797 23.88480469 5.125 22.5 C3.40175135 16.31818738 1.53380262 10.60407193 -1.43017578 4.89257812 C-1.61821777 4.26802734 -1.80625977 3.64347656 -2 3 C-1.34 2.01 -0.68 1.02 0 0 Z " fill="#050505" transform="translate(599,551)"/>
<path d="M0 0 C2.78009867 2.78009867 3.36326329 5.99060218 4.375 9.6875 C4.59051514 10.47189453 4.80603027 11.25628906 5.02807617 12.06445312 C6.7696474 18.65383562 8.11721272 25.29165483 9.3125 32 C9.48378418 32.94190186 9.65506836 33.88380371 9.83154297 34.85424805 C10.86474975 40.95511366 11.20370749 46.81668119 11 53 C10.67 53 10.34 53 10 53 C9.91024902 52.41323486 9.82049805 51.82646973 9.72802734 51.22192383 C7.597004 37.55338618 4.7239589 24.4003717 0.66308594 11.17578125 C-0.26562586 8.12840292 -1.13462484 5.06590055 -2 2 C-1.34 1.34 -0.68 0.68 0 0 Z " fill="#050505" transform="translate(569,584)"/>
<path d="M0 0 C0.66 0 1.32 0 2 0 C2 0.66 2 1.32 2 2 C2.72574219 2.25523437 3.45148438 2.51046875 4.19921875 2.7734375 C7.1552984 4.06801074 9.30564666 5.60455104 11.8125 7.625 C12.60269531 8.25664062 13.39289063 8.88828125 14.20703125 9.5390625 C14.79871094 10.02117187 15.39039063 10.50328125 16 11 C15.34 13.97 14.68 16.94 14 20 C6.91982078 14.44691826 2.42059828 8.80217557 0 0 Z " fill="#2B78FC" transform="translate(473,311)"/>
<path d="M0 0 C0.99 0 1.98 0 3 0 C2.33812178 6.32602837 1.48439534 12.59197391 0.5 18.875 C-0.487643 25.24615028 -1.35109255 31.55857098 -1.69140625 38.00390625 C-2 40 -2 40 -4 43 C-4.47541243 33.47414353 -3.61751972 24.21028016 -2.5625 14.75 C-2.42803467 13.53530029 -2.29356934 12.32060059 -2.1550293 11.0690918 C-1.13480959 2.26961917 -1.13480959 2.26961917 0 0 Z " fill="#37A5FE" transform="translate(115,337)"/>
<path d="M0 0 C3.3 0.33 6.6 0.66 10 1 C10 4 10 4 8.5625 5.5 C8.046875 5.995 7.53125 6.49 7 7 C6.67 7.99 6.34 8.98 6 10 C2.04 9.67 -1.92 9.34 -6 9 C-4 6 -2 3 0 0 Z " fill="#2C66B2" transform="translate(177,205)"/>
<path d="M0 0 C0.33 0 0.66 0 1 0 C1.08040527 0.8156543 1.16081055 1.63130859 1.24365234 2.47167969 C1.54988131 5.55843271 1.85973237 8.64479683 2.171875 11.73095703 C2.36989669 13.6992736 2.56390779 15.66799235 2.7578125 17.63671875 C3.55466792 25.48574463 4.58652861 33.2377014 6 41 C5.34 41 4.68 41 4 41 C3.67 42.32 3.34 43.64 3 45 C1.1107661 29.95647265 -0.53554365 15.17373669 0 0 Z " fill="#1B74BC" transform="translate(111,384)"/>
<path d="M0 0 C0 0.33 0 0.66 0 1 C-0.721875 1 -1.44375 1 -2.1875 1 C-5.5787559 2.20577987 -5.74354069 2.98928595 -7.375 6.0625 C-8.59765625 8.25390625 -8.59765625 8.25390625 -10 10 C-13.8125 10.5 -13.8125 10.5 -17 10 C-16.01 7.03 -15.02 4.06 -14 1 C-9.23692563 0.04738513 -4.8333472 -0.08333357 0 0 Z " fill="#3371B3" transform="translate(155,256)"/>
<path d="M0 0 C2.97 0.495 2.97 0.495 6 1 C6 3.97 6 6.94 6 10 C4.35 10.33 2.7 10.66 1 11 C-0.20272819 8.59454362 -0.10071472 7.05003047 -0.0625 4.375 C-0.05347656 3.55773437 -0.04445313 2.74046875 -0.03515625 1.8984375 C-0.02355469 1.27195312 -0.01195312 0.64546875 0 0 Z " fill="#020202" transform="translate(580,639)"/>
<path d="M0 0 C0.33 0 0.66 0 1 0 C1.09776087 10.38437692 1.1555538 20.66192051 0 31 C-0.33 31 -0.66 31 -1 31 C-2.38983777 20.36961919 -1.43440595 10.56244378 0 0 Z " fill="#1D57C3" transform="translate(656,383)"/>
<path d="M0 0 C3 1 3 1 4.25 2.75 C5.18983599 5.56950796 4.90948347 7.19575931 4 10 C3.01 10.495 3.01 10.495 2 11 C-0.99481865 6.41968912 -0.99481865 6.41968912 -2 4 C-1.25 1.5625 -1.25 1.5625 0 0 Z " fill="#1C4583" transform="translate(595,543)"/>
<path d="M0 0 C-0.680625 1.0828125 -0.680625 1.0828125 -1.375 2.1875 C-2.85494358 4.74894081 -3.97217539 7.23277989 -5 10 C-5.99 10 -6.98 10 -8 10 C-7.93993922 8.54052295 -7.8511311 7.08220728 -7.75 5.625 C-7.70359375 4.81289063 -7.6571875 4.00078125 -7.609375 3.1640625 C-7 1 -7 1 -5.140625 -0.3515625 C-3 -1 -3 -1 0 0 Z " fill="#2B6FA9" transform="translate(123,327)"/>
<path d="M0 0 C0.66 0 1.32 0 2 0 C2.99 3.3 3.98 6.6 5 10 C4.01 10.66 3.02 11.32 2 12 C1.4654744 10.75579353 0.94791389 9.50429064 0.4375 8.25 C0.14746094 7.55390625 -0.14257812 6.8578125 -0.44140625 6.140625 C-1.07831803 3.69987216 -0.80248831 2.3596345 0 0 Z " fill="#1D4A84" transform="translate(565,574)"/>
<path d="M0 0 C3.27723056 1.05339554 4.60460094 2.63763259 6.3125 5.5 C7.1478125 7.2325 7.1478125 7.2325 8 9 C7.67 9.66 7.34 10.32 7 11 C1.21538462 6.81538462 1.21538462 6.81538462 0.125 2.6875 C0.08375 1.800625 0.0425 0.91375 0 0 Z " fill="#3566BA" transform="translate(522,359)"/>
<path d="M0 0 C3.68069887 1.53643852 5.98775204 3.78150945 8.75 6.625 C9.54921875 7.44226563 10.3484375 8.25953125 11.171875 9.1015625 C12.07679688 10.04128906 12.07679688 10.04128906 13 11 C12.67 11.66 12.34 12.32 12 13 C10.36828877 11.59106853 8.74486055 10.17254042 7.125 8.75 C6.22007812 7.96109375 5.31515625 7.1721875 4.3828125 6.359375 C2.25560007 4.25308597 1.09487694 2.74348474 0 0 Z " fill="#397EF3" transform="translate(496,330)"/>
<path d="M0 0 C0.33 0 0.66 0 1 0 C1.33 2.97 1.66 5.94 2 9 C1.34 9 0.68 9 0 9 C-0.33 10.32 -0.66 11.64 -1 13 C-1.22151549 11.20991533 -1.42682213 9.41781838 -1.625 7.625 C-1.74101563 6.62726563 -1.85703125 5.62953125 -1.9765625 4.6015625 C-1.98429687 3.74304688 -1.99203125 2.88453125 -2 2 C-1.34 1.34 -0.68 0.68 0 0 Z " fill="#1A7DC3" transform="translate(115,416)"/>
<path d="M0 0 C0.33 0.66 0.66 1.32 1 2 C1.66 2.33 2.32 2.66 3 3 C2.01 6.96 1.02 10.92 0 15 C-0.33 15 -0.66 15 -1 15 C-1.02715383 13.25008666 -1.04646551 11.50005055 -1.0625 9.75 C-1.07410156 8.77546875 -1.08570313 7.8009375 -1.09765625 6.796875 C-1.01195577 4.34241322 -0.70706066 2.33831086 0 0 Z " fill="#3472BF" transform="translate(326,366)"/>
</svg>
