<svg xmlns="http://www.w3.org/2000/svg" data-name="Layer 1" viewBox="0 0 534.5 100.2" id="medium"><path d="M345.4,79.2c0,1.3,0,1.6.9,2.4l5,4.9v.2H329.2V77.3a15.55,15.55,0,0,1-14.7,10.3c-11.4,0-19.6-9-19.6-25.6,0-15.5,8.9-25.9,21.4-25.9a13,13,0,0,1,12.8,8V23.4a2.45,2.45,0,0,0-1-2.5l-4.7-4.6V16l22-2.6V79.2Zm-16.2-3V45.1a8.06,8.06,0,0,0-6.6-3.1c-5.4,0-10.6,4.9-10.6,19.5,0,13.7,4.5,18.5,10.1,18.5A8.7,8.7,0,0,0,329.2,76.2Zm30.9,10.6v-42a2.91,2.91,0,0,0-.9-2.5l-4.9-5.1V37h22.1V79.6c0,1.3,0,1.6.9,2.4l4.9,4.6v.2Zm-.8-65.2a8.9,8.9,0,1,1,8.9,9,8.94,8.94,0,0,1-8.9-9ZM436,79.1c0,1.3,0,1.7.9,2.5l5,4.9v.2H419.7V76a16.15,16.15,0,0,1-15.2,11.6c-9.9,0-15.1-7.3-15.1-21,0-6.6,0-13.9.2-22a2.49,2.49,0,0,0-.9-2.4l-4.9-4.9V37h21.9V64.4c0,9,1.3,15,6.9,15a9,9,0,0,0,7.2-4.5v-30a2.91,2.91,0,0,0-.9-2.5L414,37.3V37h22Zm75.3,7.7c0-1.6.3-22.3.3-27,0-9-1.4-15.2-7.7-15.2a10.1,10.1,0,0,0-7.9,4.3,40.93,40.93,0,0,1,.9,8.5c0,6.2-.2,14.2-.3,22.1a2.49,2.49,0,0,0,.9,2.4l5,4.6v.2H480.2c0-1.5.3-22.3.3-27,0-9.1-1.4-15.2-7.6-15.2a9.16,9.16,0,0,0-7.4,4.4V79.5c0,1.3,0,1.6.9,2.4l4.9,4.6v.2H449.2v-42a2.91,2.91,0,0,0-.9-2.5L443.4,37h22.1V47.7a15.77,15.77,0,0,1,15.8-11.5c7.4,0,12.3,4.1,14.4,12a17.28,17.28,0,0,1,16.6-12c9.9,0,15.4,7.3,15.4,21.2,0,6.6-.2,14.2-.3,22.1a2.29,2.29,0,0,0,1,2.4l4.9,4.6v.2h-22ZM233.6,80.3l6.6,6.3v.2H206.9v-.2l6.7-6.3a2.49,2.49,0,0,0,.9-2.4V37.4a42.25,42.25,0,0,1,.3-6L192.4,87.6H192L168.8,35.9c-.5-1.3-.7-1.4-1-2.2V67.6a11.46,11.46,0,0,0,1.1,6.6l9.3,12.4v.2H153.4v-.2l9.3-12.4a11.46,11.46,0,0,0,1.1-6.6V30a7.18,7.18,0,0,0-1.5-5.1l-6.6-8.7V16h23.7l19.9,43.8L216.9,16h23.2v.2l-6.5,7.3a2.52,2.52,0,0,0-1,2.5V77.7A2.53,2.53,0,0,0,233.6,80.3Zm26-20.3v.2c0,12.8,6.6,18,14.2,18a16,16,0,0,0,15.1-9.3h.2c-2.7,12.7-10.4,18.7-22.1,18.7-12.5,0-24.4-7.6-24.4-25.4,0-18.6,11.9-26.1,25-26.1,10.6,0,21.8,5,21.8,21.2v2.6H259.6Zm0-2.6h14.6V54.8c0-13.2-2.7-16.7-6.8-16.7-4.9,0-7.9,5.2-7.8,19.3Z" data-name="Wordmark Black"></path><path d="M81.8,50.1A37.25,37.25,0,1,1,44.5,12.6,37.39,37.39,0,0,1,81.8,50.1m40.8,0c0,19.5-8.3,35.3-18.6,35.3S85.4,69.6,85.4,50.1,93.7,14.8,104,14.8s18.6,15.8,18.6,35.3m16.7,0c0,17.5-2.9,31.6-6.5,31.6s-6.5-14.2-6.5-31.6,2.9-31.6,6.5-31.6,6.5,14.1,6.5,31.6"></path></svg>